<svg width="72" height="74" viewBox="0 0 72 74" fill="none" xmlns="http://www.w3.org/2000/svg">
<g filter="url(#filter0_d_71_77)">
<path d="M39.0838 6C42.4588 6.009 44.1718 6.027 45.6508 6.069L46.2328 6.09C46.9048 6.114 47.5677 6.144 48.3688 6.18C51.5607 6.33 53.7388 6.834 55.6497 7.575C57.6297 8.337 59.2978 9.369 60.9658 11.034C62.4918 12.5332 63.6723 14.3474 64.4248 16.35C65.1658 18.261 65.6698 20.439 65.8198 23.634C65.8558 24.432 65.8857 25.095 65.9098 25.77L65.9277 26.352C65.9728 27.828 65.9908 29.541 65.9968 32.916L65.9998 35.154V39.084C66.0071 41.2722 65.9841 43.4604 65.9307 45.648L65.9128 46.23C65.8888 46.905 65.8588 47.568 65.8228 48.366C65.6728 51.561 65.1628 53.736 64.4248 55.65C63.6723 57.6526 62.4918 59.4668 60.9658 60.966C59.4666 62.4921 57.6523 63.6726 55.6497 64.425C53.7388 65.166 51.5607 65.67 48.3688 65.82L46.2328 65.91L45.6508 65.928C44.1718 65.97 42.4588 65.991 39.0838 65.997L36.8458 66H32.9188C30.7295 66.0077 28.5403 65.9847 26.3518 65.931L25.7698 65.913C25.0576 65.886 24.3456 65.855 23.6338 65.82C20.4418 65.67 18.2638 65.166 16.3498 64.425C14.3482 63.6722 12.5351 62.4917 11.0368 60.966C9.50959 59.4671 8.32808 57.6529 7.57475 55.65C6.83375 53.739 6.32975 51.561 6.17975 48.366L6.08975 46.23L6.07475 45.648C6.01945 43.4605 5.99445 41.2722 5.99975 39.084V32.916C5.99145 30.7278 6.01345 28.5396 6.06575 26.352L6.08675 25.77C6.11075 25.095 6.14075 24.432 6.17675 23.634C6.32675 20.439 6.83075 18.264 7.57175 16.35C8.32684 14.3466 9.51042 12.5323 11.0398 11.034C12.5372 9.50865 14.3493 8.32822 16.3498 7.575C18.2638 6.834 20.4388 6.33 23.6338 6.18C24.4318 6.144 25.0978 6.114 25.7698 6.09L26.3518 6.072C28.5393 6.0187 30.7275 5.9957 32.9158 6.003L39.0838 6ZM35.9998 21C32.0215 21 28.2062 22.5804 25.3932 25.3934C22.5801 28.2064 20.9998 32.0218 20.9998 36C20.9998 39.9782 22.5801 43.7936 25.3932 46.6066C28.2062 49.4197 32.0215 51 35.9998 51C39.978 51 43.7933 49.4197 46.6064 46.6066C49.4194 43.7936 50.9998 39.9782 50.9998 36C50.9998 32.0218 49.4194 28.2064 46.6064 25.3934C43.7933 22.5804 39.978 21 35.9998 21ZM35.9998 27C37.1816 26.9998 38.352 27.2324 39.444 27.6845C40.536 28.1366 41.5283 28.7994 42.3642 29.635C43.2 30.4706 43.8631 31.4626 44.3156 32.5545C44.7681 33.6463 45.0011 34.8166 45.0013 35.9985C45.0014 37.1804 44.7689 38.3508 44.3167 39.4428C43.8646 40.5348 43.2019 41.527 42.3663 42.3629C41.5307 43.1988 40.5386 43.8619 39.4468 44.3143C38.3549 44.7668 37.1847 44.9998 36.0028 45C33.6158 45 31.3266 44.0518 29.6388 42.364C27.951 40.6761 27.0028 38.387 27.0028 36C27.0028 33.6131 27.951 31.3239 29.6388 29.636C31.3266 27.9482 33.6158 27 36.0028 27M51.7528 16.5C50.7582 16.5 49.8044 16.8951 49.1011 17.5984C48.3978 18.3016 48.0028 19.2554 48.0028 20.25C48.0028 21.2446 48.3978 22.1984 49.1011 22.9017C49.8044 23.6049 50.7582 24 51.7528 24C52.7473 24 53.7011 23.6049 54.4044 22.9017C55.1077 22.1984 55.5028 21.2446 55.5028 20.25C55.5028 19.2554 55.1077 18.3016 54.4044 17.5984C53.7011 16.8951 52.7473 16.5 51.7528 16.5Z" fill="white"/>
</g>
<defs>
<filter id="filter0_d_71_77" x="-4" y="0" width="80" height="80" filterUnits="userSpaceOnUse" color-interpolation-filters="sRGB">
<feFlood flood-opacity="0" result="BackgroundImageFix"/>
<feColorMatrix in="SourceAlpha" type="matrix" values="0 0 0 0 0 0 0 0 0 0 0 0 0 0 0 0 0 0 127 0" result="hardAlpha"/>
<feOffset dy="4"/>
<feGaussianBlur stdDeviation="2"/>
<feComposite in2="hardAlpha" operator="out"/>
<feColorMatrix type="matrix" values="0 0 0 0 0 0 0 0 0 0 0 0 0 0 0 0 0 0 0.25 0"/>
<feBlend mode="normal" in2="BackgroundImageFix" result="effect1_dropShadow_71_77"/>
<feBlend mode="normal" in="SourceGraphic" in2="effect1_dropShadow_71_77" result="shape"/>
</filter>
</defs>
</svg>
