<svg width="142" height="80" viewBox="0 0 142 80" fill="none" xmlns="http://www.w3.org/2000/svg">
<rect width="142" height="80" fill="white"/>
<rect x="16.8" y="20.8" width="38.4" height="38.4" stroke="url(#paint0_linear_151_1788)" stroke-width="9.6"/>
<g clip-path="url(#clip0_151_1788)">
<rect x="16.8" y="20.8" width="38.4" height="38.4" stroke="url(#paint1_linear_151_1788)" stroke-width="9.6"/>
</g>
<g clip-path="url(#clip1_151_1788)">
<rect x="16.8" y="20.8" width="38.4" height="38.4" stroke="url(#paint2_linear_151_1788)" stroke-width="9.6"/>
</g>
<g filter="url(#filter0_d_151_1788)">
<path d="M81.78 40.12C81.14 40.12 80.38 40.09 79.5 40.03C79.18 40.01 78.78 39.99 78.3 39.97C77.84 39.95 77.32 39.94 76.74 39.94L74.52 39.97C74.12 39.99 73.58 40 72.9 40C72.86 40 72.84 39.94 72.84 39.82C72.84 39.7 72.86 39.64 72.9 39.64C73.54 39.64 74.01 39.59 74.31 39.49C74.61 39.39 74.81 39.2 74.91 38.92C75.03 38.62 75.09 38.17 75.09 37.57V23.68C75.09 23.08 75.03 22.64 74.91 22.36C74.81 22.08 74.61 21.89 74.31 21.79C74.03 21.67 73.58 21.61 72.96 21.61C72.9 21.61 72.87 21.55 72.87 21.43C72.87 21.31 72.9 21.25 72.96 21.25L74.55 21.28C75.47 21.32 76.2 21.34 76.74 21.34C77.56 21.34 78.4 21.31 79.26 21.25C80.3 21.21 81 21.19 81.36 21.19C83.38 21.19 85.17 21.59 86.73 22.39C88.31 23.19 89.53 24.28 90.39 25.66C91.25 27.04 91.68 28.59 91.68 30.31C91.68 32.25 91.23 33.97 90.33 35.47C89.45 36.95 88.25 38.1 86.73 38.92C85.23 39.72 83.58 40.12 81.78 40.12ZM81.48 39.43C82.76 39.43 83.89 39.11 84.87 38.47C85.85 37.81 86.61 36.84 87.15 35.56C87.71 34.28 87.99 32.75 87.99 30.97C87.99 29.27 87.73 27.73 87.21 26.35C86.69 24.95 85.95 23.85 84.99 23.05C84.03 22.25 82.92 21.85 81.66 21.85C80.42 21.85 79.57 21.97 79.11 22.21C78.65 22.45 78.42 22.96 78.42 23.74V37.24C78.42 38.04 78.63 38.61 79.05 38.95C79.47 39.27 80.28 39.43 81.48 39.43ZM100.562 37.57C100.562 38.19 100.612 38.64 100.712 38.92C100.812 39.2 101.002 39.39 101.282 39.49C101.582 39.59 102.052 39.64 102.692 39.64C102.752 39.64 102.782 39.7 102.782 39.82C102.782 39.94 102.752 40 102.692 40C102.032 40 101.512 39.99 101.132 39.97L98.8523 39.94L96.6323 39.97C96.2323 39.99 95.6923 40 95.0123 40C94.9723 40 94.9523 39.94 94.9523 39.82C94.9523 39.7 94.9723 39.64 95.0123 39.64C95.6523 39.64 96.1223 39.59 96.4223 39.49C96.7223 39.39 96.9223 39.2 97.0223 38.92C97.1423 38.62 97.2023 38.17 97.2023 37.57V23.68C97.2023 23.08 97.1423 22.64 97.0223 22.36C96.9223 22.08 96.7223 21.89 96.4223 21.79C96.1223 21.67 95.6523 21.61 95.0123 21.61C94.9723 21.61 94.9523 21.55 94.9523 21.43C94.9523 21.31 94.9723 21.25 95.0123 21.25L96.6323 21.28C97.5523 21.32 98.2923 21.34 98.8523 21.34C99.4723 21.34 100.242 21.32 101.162 21.28L102.692 21.25C102.752 21.25 102.782 21.31 102.782 21.43C102.782 21.55 102.752 21.61 102.692 21.61C102.072 21.61 101.612 21.67 101.312 21.79C101.012 21.91 100.812 22.12 100.712 22.42C100.612 22.7 100.562 23.14 100.562 23.74V37.57ZM123.356 21.25C123.396 21.25 123.416 21.31 123.416 21.43C123.416 21.55 123.396 21.61 123.356 21.61C122.736 21.61 121.976 22 121.076 22.78C120.176 23.54 119.376 24.5 118.676 25.66L115.556 30.88V37.57C115.556 38.19 115.606 38.64 115.706 38.92C115.806 39.2 115.996 39.39 116.276 39.49C116.576 39.59 117.046 39.64 117.686 39.64C117.746 39.64 117.776 39.7 117.776 39.82C117.776 39.94 117.746 40 117.686 40C117.026 40 116.506 39.99 116.126 39.97L113.876 39.94L111.656 39.97C111.256 39.99 110.716 40 110.036 40C109.996 40 109.976 39.94 109.976 39.82C109.976 39.7 109.996 39.64 110.036 39.64C110.676 39.64 111.146 39.59 111.446 39.49C111.746 39.39 111.946 39.2 112.046 38.92C112.166 38.62 112.226 38.17 112.226 37.57V31.51L107.846 24.7C107.106 23.54 106.486 22.74 105.986 22.3C105.506 21.84 105.096 21.61 104.756 21.61C104.696 21.61 104.666 21.55 104.666 21.43C104.666 21.31 104.696 21.25 104.756 21.25L105.686 21.28C106.126 21.32 106.436 21.34 106.616 21.34C107.316 21.34 108.326 21.32 109.646 21.28L111.626 21.25C111.666 21.25 111.686 21.31 111.686 21.43C111.686 21.55 111.666 21.61 111.626 21.61C111.286 21.61 111.016 21.69 110.816 21.85C110.636 22.01 110.546 22.22 110.546 22.48C110.546 22.8 110.686 23.18 110.966 23.62L115.076 30.1L117.836 25.39C118.376 24.49 118.646 23.72 118.646 23.08C118.646 22.6 118.496 22.24 118.196 22C117.916 21.74 117.506 21.61 116.966 21.61C116.906 21.61 116.876 21.55 116.876 21.43C116.876 21.31 116.906 21.25 116.966 21.25L118.556 21.28C119.476 21.32 120.296 21.34 121.016 21.34C121.356 21.34 121.766 21.32 122.246 21.28L123.356 21.25ZM89.376 59.712C89.424 59.712 89.448 59.76 89.448 59.856C89.448 59.952 89.424 60 89.376 60C88.864 60 88.464 59.992 88.176 59.976L86.472 59.952L84.624 59.976C84.352 59.992 83.976 60 83.496 60C83.448 60 83.424 59.952 83.424 59.856C83.424 59.76 83.448 59.712 83.496 59.712C84.12 59.712 84.568 59.672 84.84 59.592C85.128 59.512 85.32 59.36 85.416 59.136C85.528 58.896 85.584 58.536 85.584 58.056V52.464H76.632V58.056C76.632 58.536 76.68 58.896 76.776 59.136C76.888 59.36 77.08 59.512 77.352 59.592C77.64 59.672 78.096 59.712 78.72 59.712C78.752 59.712 78.768 59.76 78.768 59.856C78.768 59.952 78.752 60 78.72 60C78.208 60 77.808 59.992 77.52 59.976L75.72 59.952L74.04 59.976C73.752 59.992 73.344 60 72.816 60C72.784 60 72.768 59.952 72.768 59.856C72.768 59.76 72.784 59.712 72.816 59.712C73.424 59.712 73.864 59.672 74.136 59.592C74.424 59.512 74.616 59.36 74.712 59.136C74.824 58.896 74.88 58.536 74.88 58.056V46.944C74.88 46.464 74.824 46.112 74.712 45.888C74.616 45.664 74.424 45.512 74.136 45.432C73.864 45.336 73.432 45.288 72.84 45.288C72.808 45.288 72.792 45.24 72.792 45.144C72.792 45.048 72.808 45 72.84 45L74.064 45.024C74.736 45.056 75.288 45.072 75.72 45.072C76.2 45.072 76.808 45.056 77.544 45.024L78.72 45C78.752 45 78.768 45.048 78.768 45.144C78.768 45.24 78.752 45.288 78.72 45.288C78.112 45.288 77.664 45.336 77.376 45.432C77.088 45.528 76.888 45.696 76.776 45.936C76.68 46.16 76.632 46.512 76.632 46.992V51.936H85.584V46.992C85.584 46.512 85.528 46.16 85.416 45.936C85.32 45.696 85.128 45.528 84.84 45.432C84.552 45.336 84.104 45.288 83.496 45.288C83.448 45.288 83.424 45.24 83.424 45.144C83.424 45.048 83.448 45 83.496 45L84.624 45.024C85.328 45.056 85.944 45.072 86.472 45.072C86.904 45.072 87.472 45.056 88.176 45.024L89.376 45C89.424 45 89.448 45.048 89.448 45.144C89.448 45.24 89.424 45.288 89.376 45.288C88.768 45.288 88.32 45.336 88.032 45.432C87.76 45.512 87.568 45.664 87.456 45.888C87.36 46.112 87.312 46.464 87.312 46.944V58.056C87.312 58.536 87.36 58.896 87.456 59.136C87.568 59.36 87.76 59.512 88.032 59.592C88.32 59.672 88.768 59.712 89.376 59.712ZM101.562 47.712C101.562 46.912 101.378 46.312 101.01 45.912C100.658 45.496 100.138 45.288 99.4504 45.288C99.4024 45.288 99.3784 45.24 99.3784 45.144C99.3784 45.048 99.4024 45 99.4504 45L100.506 45.024C101.05 45.056 101.506 45.072 101.874 45.072C102.178 45.072 102.586 45.056 103.098 45.024L104.106 45C104.138 45 104.154 45.048 104.154 45.144C104.154 45.24 104.138 45.288 104.106 45.288C103.466 45.288 102.986 45.496 102.666 45.912C102.346 46.312 102.186 46.912 102.186 47.712V54.504C102.186 56.312 101.666 57.736 100.626 58.776C99.5864 59.8 98.1944 60.312 96.4504 60.312C95.2664 60.312 94.2264 60.08 93.3304 59.616C92.4504 59.152 91.7624 58.496 91.2664 57.648C90.7704 56.784 90.5224 55.776 90.5224 54.624V46.944C90.5224 46.464 90.4744 46.112 90.3784 45.888C90.2824 45.664 90.0984 45.512 89.8264 45.432C89.5544 45.336 89.1224 45.288 88.5304 45.288C88.4984 45.288 88.4824 45.24 88.4824 45.144C88.4824 45.048 88.4984 45 88.5304 45L89.7304 45.024C90.4344 45.056 90.9864 45.072 91.3864 45.072C91.8344 45.072 92.4104 45.056 93.1144 45.024L94.2424 45C94.2904 45 94.3144 45.048 94.3144 45.144C94.3144 45.24 94.2904 45.288 94.2424 45.288C93.6664 45.288 93.2424 45.336 92.9704 45.432C92.6984 45.528 92.5144 45.696 92.4184 45.936C92.3224 46.16 92.2744 46.512 92.2744 46.992V53.784C92.2744 55.672 92.6904 57.112 93.5224 58.104C94.3544 59.08 95.5304 59.568 97.0504 59.568C98.4744 59.568 99.5784 59.128 100.362 58.248C101.162 57.352 101.562 56.112 101.562 54.528V47.712ZM110.304 51.552C111.584 51.664 112.608 52.096 113.376 52.848C114.16 53.584 114.552 54.496 114.552 55.584C114.552 56.432 114.336 57.2 113.904 57.888C113.472 58.576 112.88 59.12 112.128 59.52C111.392 59.904 110.56 60.096 109.632 60.096C109.12 60.096 108.56 60.072 107.952 60.024C107.728 60.008 107.464 59.992 107.16 59.976C106.856 59.96 106.512 59.952 106.128 59.952L104.472 59.976C104.168 59.992 103.76 60 103.248 60C103.216 60 103.2 59.952 103.2 59.856C103.2 59.76 103.216 59.712 103.248 59.712C103.824 59.712 104.248 59.672 104.52 59.592C104.808 59.496 105 59.336 105.096 59.112C105.208 58.888 105.264 58.536 105.264 58.056V46.944C105.264 46.464 105.216 46.112 105.12 45.888C105.024 45.664 104.84 45.512 104.568 45.432C104.296 45.336 103.872 45.288 103.296 45.288C103.248 45.288 103.224 45.24 103.224 45.144C103.224 45.048 103.248 45 103.296 45L104.472 45.024C105.144 45.056 105.696 45.072 106.128 45.072C106.416 45.072 106.68 45.064 106.92 45.048C107.176 45.032 107.392 45.016 107.568 45C108.064 44.952 108.536 44.928 108.984 44.928C110.36 44.928 111.392 45.216 112.08 45.792C112.768 46.368 113.112 47.136 113.112 48.096C113.112 48.864 112.864 49.552 112.368 50.16C111.872 50.752 111.184 51.216 110.304 51.552ZM108.504 45.312C108.104 45.312 107.8 45.352 107.592 45.432C107.4 45.496 107.256 45.648 107.16 45.888C107.064 46.128 107.016 46.496 107.016 46.992V51.552L108.096 51.576C109.2 51.576 110.016 51.272 110.544 50.664C111.088 50.056 111.36 49.256 111.36 48.264C111.36 47.368 111.128 46.656 110.664 46.128C110.2 45.584 109.48 45.312 108.504 45.312ZM109.272 59.64C110.424 59.64 111.28 59.344 111.84 58.752C112.4 58.144 112.68 57.288 112.68 56.184C112.68 54.968 112.328 53.992 111.624 53.256C110.936 52.504 109.976 52.12 108.744 52.104C108.296 52.088 107.72 52.104 107.016 52.152V58.056C107.016 58.456 107.072 58.768 107.184 58.992C107.312 59.216 107.536 59.384 107.856 59.496C108.176 59.592 108.648 59.64 109.272 59.64Z" fill="#171818"/>
</g>
<defs>
<filter id="filter0_d_151_1788" x="70.2679" y="19.6899" width="55.6483" height="44.1221" filterUnits="userSpaceOnUse" color-interpolation-filters="sRGB">
<feFlood flood-opacity="0" result="BackgroundImageFix"/>
<feColorMatrix in="SourceAlpha" type="matrix" values="0 0 0 0 0 0 0 0 0 0 0 0 0 0 0 0 0 0 127 0" result="hardAlpha"/>
<feOffset dy="1"/>
<feGaussianBlur stdDeviation="1.25"/>
<feComposite in2="hardAlpha" operator="out"/>
<feColorMatrix type="matrix" values="0 0 0 0 0 0 0 0 0 0 0 0 0 0 0 0 0 0 0.25 0"/>
<feBlend mode="normal" in2="BackgroundImageFix" result="effect1_dropShadow_151_1788"/>
<feBlend mode="normal" in="SourceGraphic" in2="effect1_dropShadow_151_1788" result="shape"/>
</filter>
<linearGradient id="paint0_linear_151_1788" x1="12" y1="40" x2="60" y2="40" gradientUnits="userSpaceOnUse">
<stop stop-color="#F12711"/>
<stop offset="1" stop-color="#F5AF19"/>
</linearGradient>
<linearGradient id="paint1_linear_151_1788" x1="12" y1="40" x2="60" y2="40" gradientUnits="userSpaceOnUse">
<stop stop-color="#40E0D0"/>
<stop offset="0.5" stop-color="#FF8C00"/>
<stop offset="1" stop-color="#FF0080"/>
</linearGradient>
<linearGradient id="paint2_linear_151_1788" x1="12" y1="40" x2="60" y2="40" gradientUnits="userSpaceOnUse">
<stop stop-color="#12C2E9"/>
<stop offset="0.5" stop-color="#C471ED"/>
<stop offset="1" stop-color="#F64F59"/>
</linearGradient>
<clipPath id="clip0_151_1788">
<rect width="24" height="24" fill="white" transform="translate(12 16)"/>
</clipPath>
<clipPath id="clip1_151_1788">
<rect width="24" height="24" fill="white" transform="translate(36 40)"/>
</clipPath>
</defs>
</svg>
