<svg width="142" height="80" viewBox="0 0 142 80" fill="none" xmlns="http://www.w3.org/2000/svg">
<rect width="142" height="80" fill="white"/>
<rect x="13.8" y="20.8" width="38.4" height="38.4" stroke="url(#paint0_linear_119_877)" stroke-width="9.6"/>
<g clip-path="url(#clip0_119_877)">
<rect x="13.8" y="20.8" width="38.4" height="38.4" stroke="url(#paint1_linear_119_877)" stroke-width="9.6"/>
</g>
<g clip-path="url(#clip1_119_877)">
<rect x="13.8" y="20.8" width="38.4" height="38.4" stroke="url(#paint2_linear_119_877)" stroke-width="9.6"/>
</g>
<g filter="url(#filter0_d_119_877)">
<mask id="path-4-inside-1_119_877" fill="white">
<path d="M77.736 39.144C76.968 39.144 76.056 39.108 75 39.036C74.616 39.012 74.136 38.988 73.56 38.964C73.008 38.94 72.384 38.928 71.688 38.928L69.024 38.964C68.544 38.988 67.896 39 67.08 39C67.032 39 67.008 38.928 67.008 38.784C67.008 38.64 67.032 38.568 67.08 38.568C67.848 38.568 68.412 38.508 68.772 38.388C69.132 38.268 69.372 38.04 69.492 37.704C69.636 37.344 69.708 36.804 69.708 36.084V19.416C69.708 18.696 69.636 18.168 69.492 17.832C69.372 17.496 69.132 17.268 68.772 17.148C68.436 17.004 67.896 16.932 67.152 16.932C67.08 16.932 67.044 16.86 67.044 16.716C67.044 16.572 67.08 16.5 67.152 16.5L69.06 16.536C70.164 16.584 71.04 16.608 71.688 16.608C72.672 16.608 73.68 16.572 74.712 16.5C75.96 16.452 76.8 16.428 77.232 16.428C79.656 16.428 81.804 16.908 83.676 17.868C85.572 18.828 87.036 20.136 88.068 21.792C89.1 23.448 89.616 25.308 89.616 27.372C89.616 29.7 89.076 31.764 87.996 33.564C86.94 35.34 85.5 36.72 83.676 37.704C81.876 38.664 79.896 39.144 77.736 39.144ZM77.376 38.316C78.912 38.316 80.268 37.932 81.444 37.164C82.62 36.372 83.532 35.208 84.18 33.672C84.852 32.136 85.188 30.3 85.188 28.164C85.188 26.124 84.876 24.276 84.252 22.62C83.628 20.94 82.74 19.62 81.588 18.66C80.436 17.7 79.104 17.22 77.592 17.22C76.104 17.22 75.084 17.364 74.532 17.652C73.98 17.94 73.704 18.552 73.704 19.488V35.688C73.704 36.648 73.956 37.332 74.46 37.74C74.964 38.124 75.936 38.316 77.376 38.316ZM101.355 36.084C101.355 36.828 101.415 37.368 101.535 37.704C101.655 38.04 101.883 38.268 102.219 38.388C102.579 38.508 103.143 38.568 103.911 38.568C103.983 38.568 104.019 38.64 104.019 38.784C104.019 38.928 103.983 39 103.911 39C103.119 39 102.495 38.988 102.039 38.964L99.3028 38.928L96.6388 38.964C96.1588 38.988 95.5108 39 94.6948 39C94.6468 39 94.6228 38.928 94.6228 38.784C94.6228 38.64 94.6468 38.568 94.6948 38.568C95.4628 38.568 96.0268 38.508 96.3868 38.388C96.7468 38.268 96.9868 38.04 97.1068 37.704C97.2508 37.344 97.3228 36.804 97.3228 36.084V19.416C97.3228 18.696 97.2508 18.168 97.1068 17.832C96.9868 17.496 96.7468 17.268 96.3868 17.148C96.0268 17.004 95.4628 16.932 94.6948 16.932C94.6468 16.932 94.6228 16.86 94.6228 16.716C94.6228 16.572 94.6468 16.5 94.6948 16.5L96.6388 16.536C97.7428 16.584 98.6308 16.608 99.3028 16.608C100.047 16.608 100.971 16.584 102.075 16.536L103.911 16.5C103.983 16.5 104.019 16.572 104.019 16.716C104.019 16.86 103.983 16.932 103.911 16.932C103.167 16.932 102.615 17.004 102.255 17.148C101.895 17.292 101.655 17.544 101.535 17.904C101.415 18.24 101.355 18.768 101.355 19.488V36.084ZM129.787 16.5C129.835 16.5 129.859 16.572 129.859 16.716C129.859 16.86 129.835 16.932 129.787 16.932C129.043 16.932 128.131 17.4 127.051 18.336C125.971 19.248 125.011 20.4 124.171 21.792L120.427 28.056V36.084C120.427 36.828 120.487 37.368 120.607 37.704C120.727 38.04 120.955 38.268 121.291 38.388C121.651 38.508 122.215 38.568 122.983 38.568C123.055 38.568 123.091 38.64 123.091 38.784C123.091 38.928 123.055 39 122.983 39C122.191 39 121.567 38.988 121.111 38.964L118.411 38.928L115.747 38.964C115.267 38.988 114.619 39 113.803 39C113.755 39 113.731 38.928 113.731 38.784C113.731 38.64 113.755 38.568 113.803 38.568C114.571 38.568 115.135 38.508 115.495 38.388C115.855 38.268 116.095 38.04 116.215 37.704C116.359 37.344 116.431 36.804 116.431 36.084V28.812L111.175 20.64C110.287 19.248 109.543 18.288 108.943 17.76C108.367 17.208 107.875 16.932 107.467 16.932C107.395 16.932 107.359 16.86 107.359 16.716C107.359 16.572 107.395 16.5 107.467 16.5L108.583 16.536C109.111 16.584 109.483 16.608 109.699 16.608C110.539 16.608 111.751 16.584 113.335 16.536L115.711 16.5C115.759 16.5 115.783 16.572 115.783 16.716C115.783 16.86 115.759 16.932 115.711 16.932C115.303 16.932 114.979 17.028 114.739 17.22C114.523 17.412 114.415 17.664 114.415 17.976C114.415 18.36 114.583 18.816 114.919 19.344L119.851 27.12L123.163 21.468C123.811 20.388 124.135 19.464 124.135 18.696C124.135 18.12 123.955 17.688 123.595 17.4C123.259 17.088 122.767 16.932 122.119 16.932C122.047 16.932 122.011 16.86 122.011 16.716C122.011 16.572 122.047 16.5 122.119 16.5L124.027 16.536C125.131 16.584 126.115 16.608 126.98 16.608C127.387 16.608 127.879 16.584 128.455 16.536L129.787 16.5ZM89.168 68.616C89.232 68.616 89.264 68.68 89.264 68.808C89.264 68.936 89.232 69 89.168 69C88.4853 69 87.952 68.9893 87.568 68.968L85.296 68.936L82.832 68.968C82.4693 68.9893 81.968 69 81.328 69C81.264 69 81.232 68.936 81.232 68.808C81.232 68.68 81.264 68.616 81.328 68.616C82.16 68.616 82.7573 68.5627 83.12 68.456C83.504 68.3493 83.76 68.1467 83.888 67.848C84.0373 67.528 84.112 67.048 84.112 66.408V58.952H72.176V66.408C72.176 67.048 72.24 67.528 72.368 67.848C72.5173 68.1467 72.7733 68.3493 73.136 68.456C73.52 68.5627 74.128 68.616 74.96 68.616C75.0027 68.616 75.024 68.68 75.024 68.808C75.024 68.936 75.0027 69 74.96 69C74.2773 69 73.744 68.9893 73.36 68.968L70.96 68.936L68.72 68.968C68.336 68.9893 67.792 69 67.088 69C67.0453 69 67.024 68.936 67.024 68.808C67.024 68.68 67.0453 68.616 67.088 68.616C67.8987 68.616 68.4853 68.5627 68.848 68.456C69.232 68.3493 69.488 68.1467 69.616 67.848C69.7653 67.528 69.84 67.048 69.84 66.408V51.592C69.84 50.952 69.7653 50.4827 69.616 50.184C69.488 49.8853 69.232 49.6827 68.848 49.576C68.4853 49.448 67.9093 49.384 67.12 49.384C67.0773 49.384 67.056 49.32 67.056 49.192C67.056 49.064 67.0773 49 67.12 49L68.752 49.032C69.648 49.0747 70.384 49.096 70.96 49.096C71.6 49.096 72.4107 49.0747 73.392 49.032L74.96 49C75.0027 49 75.024 49.064 75.024 49.192C75.024 49.32 75.0027 49.384 74.96 49.384C74.1493 49.384 73.552 49.448 73.168 49.576C72.784 49.704 72.5173 49.928 72.368 50.248C72.24 50.5467 72.176 51.016 72.176 51.656V58.248H84.112V51.656C84.112 51.016 84.0373 50.5467 83.888 50.248C83.76 49.928 83.504 49.704 83.12 49.576C82.736 49.448 82.1387 49.384 81.328 49.384C81.264 49.384 81.232 49.32 81.232 49.192C81.232 49.064 81.264 49 81.328 49L82.832 49.032C83.7707 49.0747 84.592 49.096 85.296 49.096C85.872 49.096 86.6293 49.0747 87.568 49.032L89.168 49C89.232 49 89.264 49.064 89.264 49.192C89.264 49.32 89.232 49.384 89.168 49.384C88.3573 49.384 87.76 49.448 87.376 49.576C87.0133 49.6827 86.7573 49.8853 86.608 50.184C86.48 50.4827 86.416 50.952 86.416 51.592V66.408C86.416 67.048 86.48 67.528 86.608 67.848C86.7573 68.1467 87.0133 68.3493 87.376 68.456C87.76 68.5627 88.3573 68.616 89.168 68.616ZM104.777 52.616C104.777 51.5493 104.531 50.7493 104.041 50.216C103.571 49.6613 102.878 49.384 101.961 49.384C101.897 49.384 101.865 49.32 101.865 49.192C101.865 49.064 101.897 49 101.961 49L103.368 49.032C104.094 49.0747 104.702 49.096 105.193 49.096C105.598 49.096 106.142 49.0747 106.825 49.032L108.169 49C108.211 49 108.233 49.064 108.233 49.192C108.233 49.32 108.211 49.384 108.169 49.384C107.315 49.384 106.675 49.6613 106.249 50.216C105.822 50.7493 105.609 51.5493 105.609 52.616V61.672C105.609 64.0827 104.915 65.9813 103.529 67.368C102.142 68.7333 100.286 69.416 97.9605 69.416C96.3818 69.416 94.9952 69.1067 93.8005 68.488C92.6272 67.8693 91.7098 66.9947 91.0485 65.864C90.3872 64.712 90.0565 63.368 90.0565 61.832V51.592C90.0565 50.952 89.9925 50.4827 89.8645 50.184C89.7365 49.8853 89.4912 49.6827 89.1285 49.576C88.7658 49.448 88.1898 49.384 87.4005 49.384C87.3578 49.384 87.3365 49.32 87.3365 49.192C87.3365 49.064 87.3578 49 87.4005 49L89.0005 49.032C89.9392 49.0747 90.6752 49.096 91.2085 49.096C91.8058 49.096 92.5738 49.0747 93.5125 49.032L95.0165 49C95.0805 49 95.1125 49.064 95.1125 49.192C95.1125 49.32 95.0805 49.384 95.0165 49.384C94.2485 49.384 93.6832 49.448 93.3205 49.576C92.9578 49.704 92.7125 49.928 92.5845 50.248C92.4565 50.5467 92.3925 51.016 92.3925 51.656V60.712C92.3925 63.2293 92.9472 65.1493 94.0565 66.472C95.1658 67.7733 96.7338 68.424 98.7605 68.424C100.659 68.424 102.131 67.8373 103.177 66.664C104.243 65.4693 104.777 63.816 104.777 61.704V52.616ZM115.792 57.736C117.498 57.8853 118.864 58.4613 119.888 59.464C120.933 60.4453 121.455 61.6613 121.455 63.112C121.455 64.2427 121.167 65.2667 120.592 66.184C120.016 67.1013 119.226 67.8267 118.224 68.36C117.242 68.872 116.133 69.128 114.896 69.128C114.213 69.128 113.466 69.096 112.655 69.032C112.357 69.0107 112.005 68.9893 111.6 68.968C111.194 68.9467 110.735 68.936 110.223 68.936L108.015 68.968C107.61 68.9893 107.066 69 106.383 69C106.341 69 106.319 68.936 106.319 68.808C106.319 68.68 106.341 68.616 106.383 68.616C107.151 68.616 107.717 68.5627 108.079 68.456C108.463 68.328 108.719 68.1147 108.847 67.816C108.997 67.5173 109.071 67.048 109.071 66.408V51.592C109.071 50.952 109.007 50.4827 108.879 50.184C108.751 49.8853 108.506 49.6827 108.143 49.576C107.781 49.448 107.215 49.384 106.447 49.384C106.383 49.384 106.351 49.32 106.351 49.192C106.351 49.064 106.383 49 106.447 49L108.015 49.032C108.911 49.0747 109.647 49.096 110.223 49.096C110.607 49.096 110.959 49.0853 111.28 49.064C111.621 49.0427 111.909 49.0213 112.143 49C112.805 48.936 113.434 48.904 114.031 48.904C115.866 48.904 117.242 49.288 118.16 50.056C119.077 50.824 119.536 51.848 119.536 53.128C119.536 54.152 119.205 55.0693 118.543 55.88C117.882 56.6693 116.965 57.288 115.792 57.736ZM113.392 49.416C112.858 49.416 112.453 49.4693 112.175 49.576C111.92 49.6613 111.728 49.864 111.6 50.184C111.471 50.504 111.407 50.9947 111.407 51.656V57.736L112.847 57.768C114.319 57.768 115.407 57.3627 116.111 56.552C116.837 55.7413 117.2 54.6747 117.2 53.352C117.2 52.1573 116.89 51.208 116.272 50.504C115.653 49.7787 114.693 49.416 113.392 49.416ZM114.415 68.52C115.952 68.52 117.093 68.1253 117.84 67.336C118.586 66.5253 118.96 65.384 118.96 63.912C118.96 62.2907 118.49 60.9893 117.552 60.008C116.634 59.0053 115.354 58.4933 113.712 58.472C113.114 58.4507 112.346 58.472 111.407 58.536V66.408C111.407 66.9413 111.482 67.3573 111.632 67.656C111.802 67.9547 112.101 68.1787 112.528 68.328C112.954 68.456 113.584 68.52 114.415 68.52Z"/>
</mask>
<path d="M77.736 39.144C76.968 39.144 76.056 39.108 75 39.036C74.616 39.012 74.136 38.988 73.56 38.964C73.008 38.94 72.384 38.928 71.688 38.928L69.024 38.964C68.544 38.988 67.896 39 67.08 39C67.032 39 67.008 38.928 67.008 38.784C67.008 38.64 67.032 38.568 67.08 38.568C67.848 38.568 68.412 38.508 68.772 38.388C69.132 38.268 69.372 38.04 69.492 37.704C69.636 37.344 69.708 36.804 69.708 36.084V19.416C69.708 18.696 69.636 18.168 69.492 17.832C69.372 17.496 69.132 17.268 68.772 17.148C68.436 17.004 67.896 16.932 67.152 16.932C67.08 16.932 67.044 16.86 67.044 16.716C67.044 16.572 67.08 16.5 67.152 16.5L69.06 16.536C70.164 16.584 71.04 16.608 71.688 16.608C72.672 16.608 73.68 16.572 74.712 16.5C75.96 16.452 76.8 16.428 77.232 16.428C79.656 16.428 81.804 16.908 83.676 17.868C85.572 18.828 87.036 20.136 88.068 21.792C89.1 23.448 89.616 25.308 89.616 27.372C89.616 29.7 89.076 31.764 87.996 33.564C86.94 35.34 85.5 36.72 83.676 37.704C81.876 38.664 79.896 39.144 77.736 39.144ZM77.376 38.316C78.912 38.316 80.268 37.932 81.444 37.164C82.62 36.372 83.532 35.208 84.18 33.672C84.852 32.136 85.188 30.3 85.188 28.164C85.188 26.124 84.876 24.276 84.252 22.62C83.628 20.94 82.74 19.62 81.588 18.66C80.436 17.7 79.104 17.22 77.592 17.22C76.104 17.22 75.084 17.364 74.532 17.652C73.98 17.94 73.704 18.552 73.704 19.488V35.688C73.704 36.648 73.956 37.332 74.46 37.74C74.964 38.124 75.936 38.316 77.376 38.316ZM101.355 36.084C101.355 36.828 101.415 37.368 101.535 37.704C101.655 38.04 101.883 38.268 102.219 38.388C102.579 38.508 103.143 38.568 103.911 38.568C103.983 38.568 104.019 38.64 104.019 38.784C104.019 38.928 103.983 39 103.911 39C103.119 39 102.495 38.988 102.039 38.964L99.3028 38.928L96.6388 38.964C96.1588 38.988 95.5108 39 94.6948 39C94.6468 39 94.6228 38.928 94.6228 38.784C94.6228 38.64 94.6468 38.568 94.6948 38.568C95.4628 38.568 96.0268 38.508 96.3868 38.388C96.7468 38.268 96.9868 38.04 97.1068 37.704C97.2508 37.344 97.3228 36.804 97.3228 36.084V19.416C97.3228 18.696 97.2508 18.168 97.1068 17.832C96.9868 17.496 96.7468 17.268 96.3868 17.148C96.0268 17.004 95.4628 16.932 94.6948 16.932C94.6468 16.932 94.6228 16.86 94.6228 16.716C94.6228 16.572 94.6468 16.5 94.6948 16.5L96.6388 16.536C97.7428 16.584 98.6308 16.608 99.3028 16.608C100.047 16.608 100.971 16.584 102.075 16.536L103.911 16.5C103.983 16.5 104.019 16.572 104.019 16.716C104.019 16.86 103.983 16.932 103.911 16.932C103.167 16.932 102.615 17.004 102.255 17.148C101.895 17.292 101.655 17.544 101.535 17.904C101.415 18.24 101.355 18.768 101.355 19.488V36.084ZM129.787 16.5C129.835 16.5 129.859 16.572 129.859 16.716C129.859 16.86 129.835 16.932 129.787 16.932C129.043 16.932 128.131 17.4 127.051 18.336C125.971 19.248 125.011 20.4 124.171 21.792L120.427 28.056V36.084C120.427 36.828 120.487 37.368 120.607 37.704C120.727 38.04 120.955 38.268 121.291 38.388C121.651 38.508 122.215 38.568 122.983 38.568C123.055 38.568 123.091 38.64 123.091 38.784C123.091 38.928 123.055 39 122.983 39C122.191 39 121.567 38.988 121.111 38.964L118.411 38.928L115.747 38.964C115.267 38.988 114.619 39 113.803 39C113.755 39 113.731 38.928 113.731 38.784C113.731 38.64 113.755 38.568 113.803 38.568C114.571 38.568 115.135 38.508 115.495 38.388C115.855 38.268 116.095 38.04 116.215 37.704C116.359 37.344 116.431 36.804 116.431 36.084V28.812L111.175 20.64C110.287 19.248 109.543 18.288 108.943 17.76C108.367 17.208 107.875 16.932 107.467 16.932C107.395 16.932 107.359 16.86 107.359 16.716C107.359 16.572 107.395 16.5 107.467 16.5L108.583 16.536C109.111 16.584 109.483 16.608 109.699 16.608C110.539 16.608 111.751 16.584 113.335 16.536L115.711 16.5C115.759 16.5 115.783 16.572 115.783 16.716C115.783 16.86 115.759 16.932 115.711 16.932C115.303 16.932 114.979 17.028 114.739 17.22C114.523 17.412 114.415 17.664 114.415 17.976C114.415 18.36 114.583 18.816 114.919 19.344L119.851 27.12L123.163 21.468C123.811 20.388 124.135 19.464 124.135 18.696C124.135 18.12 123.955 17.688 123.595 17.4C123.259 17.088 122.767 16.932 122.119 16.932C122.047 16.932 122.011 16.86 122.011 16.716C122.011 16.572 122.047 16.5 122.119 16.5L124.027 16.536C125.131 16.584 126.115 16.608 126.98 16.608C127.387 16.608 127.879 16.584 128.455 16.536L129.787 16.5ZM89.168 68.616C89.232 68.616 89.264 68.68 89.264 68.808C89.264 68.936 89.232 69 89.168 69C88.4853 69 87.952 68.9893 87.568 68.968L85.296 68.936L82.832 68.968C82.4693 68.9893 81.968 69 81.328 69C81.264 69 81.232 68.936 81.232 68.808C81.232 68.68 81.264 68.616 81.328 68.616C82.16 68.616 82.7573 68.5627 83.12 68.456C83.504 68.3493 83.76 68.1467 83.888 67.848C84.0373 67.528 84.112 67.048 84.112 66.408V58.952H72.176V66.408C72.176 67.048 72.24 67.528 72.368 67.848C72.5173 68.1467 72.7733 68.3493 73.136 68.456C73.52 68.5627 74.128 68.616 74.96 68.616C75.0027 68.616 75.024 68.68 75.024 68.808C75.024 68.936 75.0027 69 74.96 69C74.2773 69 73.744 68.9893 73.36 68.968L70.96 68.936L68.72 68.968C68.336 68.9893 67.792 69 67.088 69C67.0453 69 67.024 68.936 67.024 68.808C67.024 68.68 67.0453 68.616 67.088 68.616C67.8987 68.616 68.4853 68.5627 68.848 68.456C69.232 68.3493 69.488 68.1467 69.616 67.848C69.7653 67.528 69.84 67.048 69.84 66.408V51.592C69.84 50.952 69.7653 50.4827 69.616 50.184C69.488 49.8853 69.232 49.6827 68.848 49.576C68.4853 49.448 67.9093 49.384 67.12 49.384C67.0773 49.384 67.056 49.32 67.056 49.192C67.056 49.064 67.0773 49 67.12 49L68.752 49.032C69.648 49.0747 70.384 49.096 70.96 49.096C71.6 49.096 72.4107 49.0747 73.392 49.032L74.96 49C75.0027 49 75.024 49.064 75.024 49.192C75.024 49.32 75.0027 49.384 74.96 49.384C74.1493 49.384 73.552 49.448 73.168 49.576C72.784 49.704 72.5173 49.928 72.368 50.248C72.24 50.5467 72.176 51.016 72.176 51.656V58.248H84.112V51.656C84.112 51.016 84.0373 50.5467 83.888 50.248C83.76 49.928 83.504 49.704 83.12 49.576C82.736 49.448 82.1387 49.384 81.328 49.384C81.264 49.384 81.232 49.32 81.232 49.192C81.232 49.064 81.264 49 81.328 49L82.832 49.032C83.7707 49.0747 84.592 49.096 85.296 49.096C85.872 49.096 86.6293 49.0747 87.568 49.032L89.168 49C89.232 49 89.264 49.064 89.264 49.192C89.264 49.32 89.232 49.384 89.168 49.384C88.3573 49.384 87.76 49.448 87.376 49.576C87.0133 49.6827 86.7573 49.8853 86.608 50.184C86.48 50.4827 86.416 50.952 86.416 51.592V66.408C86.416 67.048 86.48 67.528 86.608 67.848C86.7573 68.1467 87.0133 68.3493 87.376 68.456C87.76 68.5627 88.3573 68.616 89.168 68.616ZM104.777 52.616C104.777 51.5493 104.531 50.7493 104.041 50.216C103.571 49.6613 102.878 49.384 101.961 49.384C101.897 49.384 101.865 49.32 101.865 49.192C101.865 49.064 101.897 49 101.961 49L103.368 49.032C104.094 49.0747 104.702 49.096 105.193 49.096C105.598 49.096 106.142 49.0747 106.825 49.032L108.169 49C108.211 49 108.233 49.064 108.233 49.192C108.233 49.32 108.211 49.384 108.169 49.384C107.315 49.384 106.675 49.6613 106.249 50.216C105.822 50.7493 105.609 51.5493 105.609 52.616V61.672C105.609 64.0827 104.915 65.9813 103.529 67.368C102.142 68.7333 100.286 69.416 97.9605 69.416C96.3818 69.416 94.9952 69.1067 93.8005 68.488C92.6272 67.8693 91.7098 66.9947 91.0485 65.864C90.3872 64.712 90.0565 63.368 90.0565 61.832V51.592C90.0565 50.952 89.9925 50.4827 89.8645 50.184C89.7365 49.8853 89.4912 49.6827 89.1285 49.576C88.7658 49.448 88.1898 49.384 87.4005 49.384C87.3578 49.384 87.3365 49.32 87.3365 49.192C87.3365 49.064 87.3578 49 87.4005 49L89.0005 49.032C89.9392 49.0747 90.6752 49.096 91.2085 49.096C91.8058 49.096 92.5738 49.0747 93.5125 49.032L95.0165 49C95.0805 49 95.1125 49.064 95.1125 49.192C95.1125 49.32 95.0805 49.384 95.0165 49.384C94.2485 49.384 93.6832 49.448 93.3205 49.576C92.9578 49.704 92.7125 49.928 92.5845 50.248C92.4565 50.5467 92.3925 51.016 92.3925 51.656V60.712C92.3925 63.2293 92.9472 65.1493 94.0565 66.472C95.1658 67.7733 96.7338 68.424 98.7605 68.424C100.659 68.424 102.131 67.8373 103.177 66.664C104.243 65.4693 104.777 63.816 104.777 61.704V52.616ZM115.792 57.736C117.498 57.8853 118.864 58.4613 119.888 59.464C120.933 60.4453 121.455 61.6613 121.455 63.112C121.455 64.2427 121.167 65.2667 120.592 66.184C120.016 67.1013 119.226 67.8267 118.224 68.36C117.242 68.872 116.133 69.128 114.896 69.128C114.213 69.128 113.466 69.096 112.655 69.032C112.357 69.0107 112.005 68.9893 111.6 68.968C111.194 68.9467 110.735 68.936 110.223 68.936L108.015 68.968C107.61 68.9893 107.066 69 106.383 69C106.341 69 106.319 68.936 106.319 68.808C106.319 68.68 106.341 68.616 106.383 68.616C107.151 68.616 107.717 68.5627 108.079 68.456C108.463 68.328 108.719 68.1147 108.847 67.816C108.997 67.5173 109.071 67.048 109.071 66.408V51.592C109.071 50.952 109.007 50.4827 108.879 50.184C108.751 49.8853 108.506 49.6827 108.143 49.576C107.781 49.448 107.215 49.384 106.447 49.384C106.383 49.384 106.351 49.32 106.351 49.192C106.351 49.064 106.383 49 106.447 49L108.015 49.032C108.911 49.0747 109.647 49.096 110.223 49.096C110.607 49.096 110.959 49.0853 111.28 49.064C111.621 49.0427 111.909 49.0213 112.143 49C112.805 48.936 113.434 48.904 114.031 48.904C115.866 48.904 117.242 49.288 118.16 50.056C119.077 50.824 119.536 51.848 119.536 53.128C119.536 54.152 119.205 55.0693 118.543 55.88C117.882 56.6693 116.965 57.288 115.792 57.736ZM113.392 49.416C112.858 49.416 112.453 49.4693 112.175 49.576C111.92 49.6613 111.728 49.864 111.6 50.184C111.471 50.504 111.407 50.9947 111.407 51.656V57.736L112.847 57.768C114.319 57.768 115.407 57.3627 116.111 56.552C116.837 55.7413 117.2 54.6747 117.2 53.352C117.2 52.1573 116.89 51.208 116.272 50.504C115.653 49.7787 114.693 49.416 113.392 49.416ZM114.415 68.52C115.952 68.52 117.093 68.1253 117.84 67.336C118.586 66.5253 118.96 65.384 118.96 63.912C118.96 62.2907 118.49 60.9893 117.552 60.008C116.634 59.0053 115.354 58.4933 113.712 58.472C113.114 58.4507 112.346 58.472 111.407 58.536V66.408C111.407 66.9413 111.482 67.3573 111.632 67.656C111.802 67.9547 112.101 68.1787 112.528 68.328C112.954 68.456 113.584 68.52 114.415 68.52Z" fill="#343434"/>
<path d="M75 39.036L75.068 38.0383L75.0624 38.0379L75 39.036ZM73.56 38.964L73.5166 39.9631L73.5184 39.9631L73.56 38.964ZM71.688 38.928V37.9279L71.6745 37.9281L71.688 38.928ZM69.024 38.964L69.0105 37.9641L68.9923 37.9643L68.9741 37.9652L69.024 38.964ZM68.772 38.388L69.0882 39.3367L69.0882 39.3367L68.772 38.388ZM69.492 37.704L68.5635 37.3326L68.5566 37.35L68.5503 37.3677L69.492 37.704ZM69.492 17.832L68.5503 18.1683L68.5607 18.1975L68.5729 18.2259L69.492 17.832ZM68.772 17.148L68.3781 18.0671L68.4163 18.0835L68.4558 18.0967L68.772 17.148ZM67.152 16.5L67.1709 15.5002L67.1614 15.5H67.152V16.5ZM69.06 16.536L69.1034 15.5369L69.0912 15.5364L69.0789 15.5362L69.06 16.536ZM74.712 16.5L74.6736 15.5007L74.658 15.5013L74.6424 15.5024L74.712 16.5ZM83.676 17.868L83.2197 18.7578L83.2243 18.7602L83.676 17.868ZM88.068 21.792L87.2193 22.3209L87.2193 22.3209L88.068 21.792ZM87.996 33.564L87.1385 33.0495L87.1365 33.0529L87.996 33.564ZM83.676 37.704L84.1466 38.5864L84.1508 38.5841L83.676 37.704ZM81.444 37.164L81.9908 38.0013L81.9967 37.9974L82.0026 37.9934L81.444 37.164ZM84.18 33.672L83.2638 33.2711L83.2586 33.2833L84.18 33.672ZM84.252 22.62L83.3146 22.9682L83.3162 22.9726L84.252 22.62ZM81.588 18.66L80.9478 19.4282L80.9478 19.4282L81.588 18.66ZM74.532 17.652L74.0694 16.7654L74.0694 16.7654L74.532 17.652ZM74.46 37.74L73.8308 38.5172L73.8422 38.5265L73.854 38.5354L74.46 37.74ZM77.736 38.144C76.9973 38.144 76.1092 38.1093 75.068 38.0383L74.932 40.0337C76.0028 40.1067 76.9387 40.144 77.736 40.144V38.144ZM75.0624 38.0379C74.669 38.0134 74.1815 37.989 73.6016 37.9649L73.5184 39.9631C74.0905 39.987 74.563 40.0106 74.9376 40.0341L75.0624 38.0379ZM73.6034 37.9649C73.0338 37.9402 72.395 37.928 71.688 37.928V39.928C72.373 39.928 72.9822 39.9398 73.5166 39.9631L73.6034 37.9649ZM71.6745 37.9281L69.0105 37.9641L69.0375 39.9639L71.7015 39.9279L71.6745 37.9281ZM68.9741 37.9652C68.5182 37.988 67.8891 38 67.08 38V40C67.9029 40 68.5698 39.988 69.0739 39.9628L68.9741 37.9652ZM67.08 38C67.3506 38 67.5897 38.1135 67.7556 38.2794C67.897 38.4207 67.9537 38.5668 67.9747 38.6298C68.0148 38.7501 68.008 38.8268 68.008 38.784H66.008C66.008 38.8852 66.0132 39.0699 66.0773 39.2622C66.1329 39.4289 66.3917 40 67.08 40V38ZM68.008 38.784C68.008 38.7412 68.0148 38.8179 67.9747 38.9382C67.9537 39.0012 67.897 39.1473 67.7556 39.2886C67.5897 39.4545 67.3506 39.568 67.08 39.568V37.568C66.3917 37.568 66.1329 38.1391 66.0773 38.3058C66.0132 38.4981 66.008 38.6828 66.008 38.784H68.008ZM67.08 39.568C67.8688 39.568 68.5678 39.5101 69.0882 39.3367L68.4558 37.4393C68.2562 37.5059 67.8272 37.568 67.08 37.568V39.568ZM69.0882 39.3367C69.7183 39.1267 70.203 38.6863 70.4337 38.0403L68.5503 37.3677C68.5439 37.3856 68.5386 37.3946 68.5366 37.3977C68.5347 37.4006 68.5338 37.4014 68.5333 37.402C68.5325 37.4027 68.5284 37.4066 68.5178 37.4127C68.5068 37.4191 68.4872 37.4288 68.4558 37.4393L69.0882 39.3367ZM70.4205 38.0754C70.6364 37.5355 70.708 36.8412 70.708 36.084H68.708C68.708 36.7668 68.6356 37.1525 68.5635 37.3326L70.4205 38.0754ZM70.708 36.084V19.416H68.708V36.084H70.708ZM70.708 19.416C70.708 18.6664 70.6385 17.9686 70.4111 17.4381L68.5729 18.2259C68.6335 18.3674 68.708 18.7256 68.708 19.416H70.708ZM70.4337 17.4957C70.203 16.8497 69.7183 16.4093 69.0882 16.1993L68.4558 18.0967C68.4872 18.1072 68.5068 18.1169 68.5178 18.1233C68.5284 18.1294 68.5325 18.1333 68.5332 18.134C68.5338 18.1346 68.5347 18.1354 68.5366 18.1383C68.5386 18.1414 68.5439 18.1504 68.5503 18.1683L70.4337 17.4957ZM69.1659 16.2289C68.633 16.0004 67.9202 15.932 67.152 15.932V17.932C67.8718 17.932 68.239 18.0076 68.3781 18.0671L69.1659 16.2289ZM67.152 15.932C67.309 15.932 67.491 15.9741 67.6594 16.0864C67.8217 16.1946 67.9151 16.3302 67.9654 16.4308C68.0138 16.5275 68.0307 16.6076 68.0371 16.6461C68.044 16.6873 68.044 16.713 68.044 16.716H66.044C66.044 16.8391 66.0541 17.0803 66.1766 17.3252C66.2449 17.4618 66.3608 17.6244 66.5501 17.7505C66.7455 17.8809 66.959 17.932 67.152 17.932V15.932ZM68.044 16.716C68.044 16.719 68.044 16.7447 68.0371 16.7859C68.0307 16.8244 68.0138 16.9045 67.9654 17.0012C67.9151 17.1018 67.8217 17.2374 67.6594 17.3456C67.491 17.4579 67.309 17.5 67.152 17.5V15.5C66.959 15.5 66.7455 15.5511 66.5501 15.6814C66.3608 15.8076 66.2449 15.9702 66.1766 16.1068C66.0541 16.3517 66.044 16.5929 66.044 16.716H68.044ZM67.1331 17.4998L69.0411 17.5358L69.0789 15.5362L67.1709 15.5002L67.1331 17.4998ZM69.0166 17.5351C70.1265 17.5833 71.0189 17.608 71.688 17.608V15.608C71.0611 15.608 70.2015 15.5847 69.1034 15.5369L69.0166 17.5351ZM71.688 17.608C72.6964 17.608 73.7276 17.5711 74.7816 17.4976L74.6424 15.5024C73.6324 15.5729 72.6476 15.608 71.688 15.608V17.608ZM74.7504 17.4993C76.0011 17.4512 76.8222 17.428 77.232 17.428V15.428C76.7778 15.428 75.9189 15.4528 74.6736 15.5007L74.7504 17.4993ZM77.232 17.428C79.5216 17.428 81.509 17.8805 83.2197 18.7578L84.1323 16.9782C82.099 15.9355 79.7904 15.428 77.232 15.428V17.428ZM83.2243 18.7602C84.9723 19.6452 86.2925 20.8337 87.2193 22.3209L88.9167 21.2631C87.7795 19.4383 86.1717 18.0108 84.1277 16.9758L83.2243 18.7602ZM87.2193 22.3209C88.1466 23.8089 88.616 25.4837 88.616 27.372H90.616C90.616 25.1323 90.0534 23.0871 88.9167 21.2631L87.2193 22.3209ZM88.616 27.372C88.616 29.5391 88.1153 31.4215 87.1385 33.0495L88.8535 34.0785C90.0367 32.1065 90.616 29.8609 90.616 27.372H88.616ZM87.1365 33.0529C86.1733 34.6729 84.8664 35.9256 83.2012 36.8239L84.1508 38.5841C86.1336 37.5144 87.7067 36.0071 88.8555 34.0751L87.1365 33.0529ZM83.2054 36.8216C81.5588 37.6999 79.7418 38.144 77.736 38.144V40.144C80.0502 40.144 82.1932 39.6281 84.1466 38.5864L83.2054 36.8216ZM77.376 39.316C79.0873 39.316 80.637 38.8853 81.9908 38.0013L80.8972 36.3267C79.899 36.9787 78.7367 37.316 77.376 37.316V39.316ZM82.0026 37.9934C83.3664 37.075 84.3914 35.7437 85.1014 34.0607L83.2586 33.2833C82.6726 34.6723 81.8736 35.669 80.8854 36.3346L82.0026 37.9934ZM85.0962 34.0728C85.8364 32.3809 86.188 30.4016 86.188 28.164H84.188C84.188 30.1984 83.8676 31.8911 83.2638 33.2712L85.0962 34.0728ZM86.188 28.164C86.188 26.0217 85.8602 24.0519 85.1878 22.2674L83.3162 22.9726C83.8918 24.5001 84.188 26.2263 84.188 28.164H86.188ZM85.1894 22.2718C84.5166 20.4602 83.5382 18.9834 82.2282 17.8918L80.9478 19.4282C81.9418 20.2566 82.7394 21.4198 83.3146 22.9682L85.1894 22.2718ZM82.2282 17.8918C80.8948 16.7807 79.3358 16.22 77.592 16.22V18.22C78.8722 18.22 79.9772 18.6193 80.9478 19.4282L82.2282 17.8918ZM77.592 16.22C76.8199 16.22 76.1429 16.2571 75.5712 16.3378C75.0123 16.4167 74.4909 16.5455 74.0694 16.7654L74.9946 18.5386C75.1251 18.4705 75.3897 18.3833 75.8508 18.3182C76.2991 18.2549 76.8761 18.22 77.592 18.22V16.22ZM74.0694 16.7654C73.0366 17.3043 72.704 18.387 72.704 19.488H74.704C74.704 18.717 74.9234 18.5757 74.9946 18.5386L74.0694 16.7654ZM72.704 19.488V35.688H74.704V19.488H72.704ZM72.704 35.688C72.704 36.8007 72.9968 37.8421 73.8308 38.5172L75.0892 36.9628C74.9152 36.8219 74.704 36.4953 74.704 35.688H72.704ZM73.854 38.5354C74.2768 38.8576 74.8134 39.0425 75.3732 39.153C75.9446 39.2659 76.6174 39.316 77.376 39.316V37.316C76.6946 37.316 76.1614 37.2701 75.7608 37.191C75.3486 37.1095 75.1472 37.0064 75.066 36.9446L73.854 38.5354ZM101.535 37.704L100.593 38.0403L100.593 38.0403L101.535 37.704ZM102.219 38.388L101.882 39.3297L101.892 39.3333L101.903 39.3367L102.219 38.388ZM102.039 38.964L102.091 37.9654L102.072 37.9643L102.052 37.9641L102.039 38.964ZM99.3028 38.928L99.316 37.9281L99.3026 37.9279L99.2893 37.9281L99.3028 38.928ZM96.6388 38.964L96.6253 37.9641L96.6071 37.9643L96.5889 37.9652L96.6388 38.964ZM97.1068 37.704L96.1783 37.3326L96.1714 37.35L96.1651 37.3677L97.1068 37.704ZM97.1068 17.832L96.1651 18.1683L96.1755 18.1975L96.1877 18.2259L97.1068 17.832ZM96.3868 17.148L96.0154 18.0765L96.0427 18.0874L96.0706 18.0967L96.3868 17.148ZM94.6948 16.5L94.7133 15.5002L94.7041 15.5H94.6948V16.5ZM96.6388 16.536L96.6822 15.5369L96.6698 15.5364L96.6573 15.5362L96.6388 16.536ZM102.075 16.536L102.055 15.5362L102.043 15.5364L102.031 15.5369L102.075 16.536ZM103.911 16.5V15.5H103.901L103.891 15.5002L103.911 16.5ZM102.255 17.148L101.883 16.2195L101.883 16.2195L102.255 17.148ZM101.535 17.904L102.477 18.2403L102.48 18.2303L102.483 18.2202L101.535 17.904ZM100.355 36.084C100.355 36.8459 100.412 37.5325 100.593 38.0403L102.477 37.3677C102.418 37.2035 102.355 36.8101 102.355 36.084H100.355ZM100.593 38.0403C100.814 38.6587 101.264 39.1089 101.882 39.3297L102.555 37.4463C102.532 37.438 102.519 37.4308 102.512 37.4267C102.506 37.4228 102.504 37.4205 102.503 37.4199C102.502 37.4193 102.5 37.4169 102.496 37.4106C102.492 37.4041 102.485 37.3907 102.477 37.3677L100.593 38.0403ZM101.903 39.3367C102.423 39.5101 103.122 39.568 103.911 39.568V37.568C103.164 37.568 102.735 37.5059 102.535 37.4393L101.903 39.3367ZM103.911 39.568C103.754 39.568 103.572 39.5259 103.403 39.4136C103.241 39.3054 103.148 39.1698 103.097 39.0692C103.049 38.9725 103.032 38.8924 103.026 38.8539C103.019 38.8127 103.019 38.787 103.019 38.784H105.019C105.019 38.6609 105.009 38.4197 104.886 38.1748C104.818 38.0382 104.702 37.8756 104.513 37.7494C104.317 37.6191 104.104 37.568 103.911 37.568V39.568ZM103.019 38.784C103.019 38.781 103.019 38.7553 103.026 38.7141C103.032 38.6756 103.049 38.5955 103.097 38.4988C103.148 38.3982 103.241 38.2626 103.403 38.1544C103.572 38.0421 103.754 38 103.911 38V40C104.104 40 104.317 39.9489 104.513 39.8186C104.702 39.6924 104.818 39.5298 104.886 39.3932C105.009 39.1483 105.019 38.9071 105.019 38.784H103.019ZM103.911 38C103.126 38 102.522 37.988 102.091 37.9654L101.986 39.9626C102.468 39.988 103.112 40 103.911 40V38ZM102.052 37.9641L99.316 37.9281L99.2897 39.9279L102.026 39.9639L102.052 37.9641ZM99.2893 37.9281L96.6253 37.9641L96.6523 39.9639L99.3163 39.9279L99.2893 37.9281ZM96.5889 37.9652C96.133 37.988 95.5039 38 94.6948 38V40C95.5177 40 96.1846 39.988 96.6887 39.9628L96.5889 37.9652ZM94.6948 38C94.9654 38 95.2045 38.1135 95.3704 38.2794C95.5118 38.4207 95.5685 38.5668 95.5895 38.6298C95.6296 38.7501 95.6228 38.8268 95.6228 38.784H93.6228C93.6228 38.8852 93.628 39.0699 93.6921 39.2622C93.7477 39.4289 94.0066 40 94.6948 40V38ZM95.6228 38.784C95.6228 38.7412 95.6296 38.8179 95.5895 38.9382C95.5685 39.0012 95.5118 39.1473 95.3704 39.2886C95.2045 39.4545 94.9654 39.568 94.6948 39.568V37.568C94.0066 37.568 93.7477 38.1391 93.6921 38.3058C93.628 38.4981 93.6228 38.6828 93.6228 38.784H95.6228ZM94.6948 39.568C95.4836 39.568 96.1827 39.5101 96.703 39.3367L96.0706 37.4393C95.871 37.5059 95.442 37.568 94.6948 37.568V39.568ZM96.703 39.3367C97.3331 39.1267 97.8178 38.6863 98.0486 38.0403L96.1651 37.3677C96.1587 37.3856 96.1534 37.3946 96.1514 37.3977C96.1495 37.4006 96.1487 37.4014 96.1481 37.402C96.1474 37.4027 96.1432 37.4066 96.1326 37.4127C96.1216 37.4191 96.1021 37.4288 96.0706 37.4393L96.703 39.3367ZM98.0353 38.0754C98.2513 37.5355 98.3228 36.8412 98.3228 36.084H96.3228C96.3228 36.7668 96.2504 37.1525 96.1783 37.3326L98.0353 38.0754ZM98.3228 36.084V19.416H96.3228V36.084H98.3228ZM98.3228 19.416C98.3228 18.6664 98.2533 17.9686 98.026 17.4381L96.1877 18.2259C96.2483 18.3674 96.3228 18.7256 96.3228 19.416H98.3228ZM98.0486 17.4957C97.8178 16.8497 97.3331 16.4093 96.703 16.1993L96.0706 18.0967C96.1021 18.1072 96.1216 18.1169 96.1326 18.1233C96.1432 18.1294 96.1474 18.1333 96.1481 18.134C96.1487 18.1346 96.1495 18.1354 96.1514 18.1383C96.1534 18.1414 96.1587 18.1504 96.1651 18.1683L98.0486 17.4957ZM96.7582 16.2195C96.2135 16.0016 95.4901 15.932 94.6948 15.932V17.932C95.4356 17.932 95.8402 18.0064 96.0154 18.0765L96.7582 16.2195ZM94.6948 15.932C94.9654 15.932 95.2045 16.0455 95.3704 16.2114C95.5118 16.3527 95.5685 16.4988 95.5895 16.5618C95.6296 16.6821 95.6228 16.7588 95.6228 16.716H93.6228C93.6228 16.8172 93.628 17.0019 93.6921 17.1942C93.7477 17.3609 94.0066 17.932 94.6948 17.932V15.932ZM95.6228 16.716C95.6228 16.6732 95.6296 16.7499 95.5895 16.8702C95.5685 16.9332 95.5118 17.0793 95.3704 17.2206C95.2045 17.3865 94.9654 17.5 94.6948 17.5V15.5C94.0066 15.5 93.7477 16.0711 93.6921 16.2378C93.628 16.4301 93.6228 16.6148 93.6228 16.716H95.6228ZM94.6763 17.4998L96.6203 17.5358L96.6573 15.5362L94.7133 15.5002L94.6763 17.4998ZM96.5954 17.5351C97.7059 17.5833 98.6101 17.608 99.3028 17.608V15.608C98.6515 15.608 97.7797 15.5847 96.6822 15.5369L96.5954 17.5351ZM99.3028 17.608C100.066 17.608 101.006 17.5834 102.118 17.5351L102.031 15.5369C100.936 15.5846 100.027 15.608 99.3028 15.608V17.608ZM102.094 17.5358L103.93 17.4998L103.891 15.5002L102.055 15.5362L102.094 17.5358ZM103.911 17.5C103.754 17.5 103.572 17.4579 103.403 17.3456C103.241 17.2374 103.148 17.1018 103.097 17.0012C103.049 16.9045 103.032 16.8244 103.026 16.7859C103.019 16.7447 103.019 16.719 103.019 16.716H105.019C105.019 16.5929 105.009 16.3517 104.886 16.1068C104.818 15.9702 104.702 15.8076 104.513 15.6814C104.317 15.5511 104.104 15.5 103.911 15.5V17.5ZM103.019 16.716C103.019 16.713 103.019 16.6873 103.026 16.6461C103.032 16.6076 103.049 16.5275 103.097 16.4308C103.148 16.3302 103.241 16.1946 103.403 16.0864C103.572 15.9741 103.754 15.932 103.911 15.932V17.932C104.104 17.932 104.317 17.8809 104.513 17.7506C104.702 17.6244 104.818 17.4618 104.886 17.3252C105.009 17.0803 105.019 16.8391 105.019 16.716H103.019ZM103.911 15.932C103.135 15.932 102.426 16.0026 101.883 16.2195L102.626 18.0765C102.804 18.0054 103.199 17.932 103.911 17.932V15.932ZM101.883 16.2195C101.257 16.47 100.801 16.9418 100.586 17.5878L102.483 18.2202C102.508 18.1462 102.532 18.114 102.626 18.0765L101.883 16.2195ZM100.593 17.5677C100.412 18.0734 100.355 18.7456 100.355 19.488H102.355C102.355 18.7904 102.417 18.4066 102.477 18.2403L100.593 17.5677ZM100.355 19.488V36.084H102.355V19.488H100.355ZM129.787 16.5V15.5H129.774L129.76 15.5004L129.787 16.5ZM127.051 18.336L127.697 19.1001L127.706 19.0917L127.051 18.336ZM124.171 21.792L123.315 21.2753L123.313 21.279L124.171 21.792ZM120.427 28.056L119.569 27.543L119.427 27.7799V28.056H120.427ZM120.607 37.704L119.666 38.0403L119.666 38.0403L120.607 37.704ZM121.291 38.388L120.955 39.3297L120.965 39.3333L120.975 39.3367L121.291 38.388ZM121.111 38.964L121.164 37.9654L121.144 37.9644L121.125 37.9641L121.111 38.964ZM118.411 38.928L118.425 37.9281L118.411 37.9279L118.398 37.9281L118.411 38.928ZM115.747 38.964L115.734 37.9641L115.716 37.9643L115.698 37.9652L115.747 38.964ZM116.215 37.704L115.287 37.3326L115.28 37.35L115.274 37.3677L116.215 37.704ZM116.431 28.812H117.431V28.5182L117.273 28.2711L116.431 28.812ZM111.175 20.64L110.332 21.1778L110.334 21.1809L111.175 20.64ZM108.943 17.76L108.252 18.482L108.267 18.4967L108.283 18.5107L108.943 17.76ZM107.467 16.5L107.5 15.5005L107.484 15.5H107.467V16.5ZM108.583 16.536L108.674 15.5401L108.645 15.5375L108.616 15.5365L108.583 16.536ZM113.335 16.536L113.32 15.5361L113.313 15.5362L113.305 15.5365L113.335 16.536ZM115.711 16.5V15.5H115.704L115.696 15.5001L115.711 16.5ZM114.739 17.22L114.115 16.4391L114.095 16.4553L114.075 16.4726L114.739 17.22ZM114.919 19.344L115.764 18.8084L115.763 18.8071L114.919 19.344ZM119.851 27.12L119.007 27.6556L119.885 29.0403L120.714 27.6256L119.851 27.12ZM123.163 21.468L122.306 20.9535L122.301 20.9624L123.163 21.468ZM123.595 17.4L122.915 18.1328L122.942 18.1579L122.971 18.1809L123.595 17.4ZM122.119 16.5L122.138 15.5002L122.129 15.5H122.119V16.5ZM124.027 16.536L124.071 15.5369L124.059 15.5364L124.046 15.5362L124.027 16.536ZM128.455 16.536L128.428 15.5364L128.4 15.5371L128.372 15.5395L128.455 16.536ZM129.787 17.5C129.517 17.5 129.278 17.3865 129.112 17.2206C128.971 17.0793 128.914 16.9332 128.893 16.8702C128.853 16.7499 128.859 16.6732 128.859 16.716H130.859C130.859 16.6148 130.854 16.4301 130.79 16.2378C130.735 16.0711 130.476 15.5 129.787 15.5V17.5ZM128.859 16.716C128.859 16.7588 128.853 16.6821 128.893 16.5618C128.914 16.4988 128.971 16.3527 129.112 16.2114C129.278 16.0455 129.517 15.932 129.787 15.932V17.932C130.476 17.932 130.735 17.3609 130.79 17.1942C130.854 17.0019 130.859 16.8172 130.859 16.716H128.859ZM129.787 15.932C128.663 15.932 127.513 16.6127 126.397 17.5803L127.706 19.0917C128.75 18.1873 129.424 17.932 129.787 17.932V15.932ZM126.406 17.572C125.231 18.564 124.203 19.8037 123.315 21.2753L125.028 22.3087C125.82 20.9963 126.712 19.932 127.697 19.1L126.406 17.572ZM123.313 21.279L119.569 27.543L121.286 28.569L125.03 22.305L123.313 21.279ZM119.427 28.056V36.084H121.427V28.056H119.427ZM119.427 36.084C119.427 36.8459 119.484 37.5325 119.666 38.0403L121.549 37.3677C121.491 37.2035 121.427 36.8101 121.427 36.084H119.427ZM119.666 38.0403C119.887 38.6587 120.337 39.1089 120.955 39.3297L121.628 37.4463C121.605 37.438 121.591 37.4308 121.585 37.4267C121.579 37.4228 121.576 37.4205 121.576 37.4199C121.575 37.4193 121.573 37.4169 121.569 37.4106C121.565 37.4041 121.557 37.3907 121.549 37.3677L119.666 38.0403ZM120.975 39.3367C121.496 39.5101 122.195 39.568 122.983 39.568V37.568C122.236 37.568 121.807 37.5059 121.608 37.4393L120.975 39.3367ZM122.983 39.568C122.827 39.568 122.645 39.5259 122.476 39.4135C122.314 39.3054 122.22 39.1698 122.17 39.0692C122.122 38.9725 122.105 38.8924 122.098 38.8539C122.091 38.8127 122.091 38.787 122.091 38.784H124.091C124.091 38.6609 124.081 38.4197 123.959 38.1748C123.891 38.0382 123.775 37.8756 123.585 37.7495C123.39 37.6191 123.176 37.568 122.983 37.568V39.568ZM122.091 38.784C122.091 38.781 122.091 38.7553 122.098 38.7141C122.105 38.6756 122.122 38.5955 122.17 38.4988C122.22 38.3982 122.314 38.2626 122.476 38.1545C122.645 38.0421 122.827 38 122.983 38V40C123.176 40 123.39 39.9489 123.585 39.8185C123.775 39.6924 123.891 39.5298 123.959 39.3932C124.081 39.1483 124.091 38.9071 124.091 38.784H122.091ZM122.983 38C122.198 38 121.594 37.988 121.164 37.9654L121.059 39.9626C121.541 39.988 122.185 40 122.983 40V38ZM121.125 37.9641L118.425 37.9281L118.398 39.9279L121.098 39.9639L121.125 37.9641ZM118.398 37.9281L115.734 37.9641L115.761 39.9639L118.425 39.9279L118.398 37.9281ZM115.698 37.9652C115.242 37.988 114.613 38 113.803 38V40C114.626 40 115.293 39.988 115.797 39.9628L115.698 37.9652ZM113.803 38C114.074 38 114.313 38.1135 114.479 38.2794C114.62 38.4207 114.677 38.5668 114.698 38.6298C114.738 38.7501 114.731 38.8268 114.731 38.784H112.731C112.731 38.8852 112.737 39.0699 112.801 39.2622C112.856 39.4289 113.115 40 113.803 40V38ZM114.731 38.784C114.731 38.7412 114.738 38.8179 114.698 38.9382C114.677 39.0012 114.62 39.1473 114.479 39.2886C114.313 39.4545 114.074 39.568 113.803 39.568V37.568C113.115 37.568 112.856 38.1391 112.801 38.3058C112.737 38.4981 112.731 38.6828 112.731 38.784H114.731ZM113.803 39.568C114.592 39.568 115.291 39.5101 115.812 39.3367L115.179 37.4393C114.98 37.5059 114.551 37.568 113.803 37.568V39.568ZM115.812 39.3367C116.442 39.1267 116.927 38.6863 117.157 38.0403L115.274 37.3677C115.267 37.3856 115.262 37.3946 115.26 37.3977C115.258 37.4006 115.257 37.4014 115.257 37.402C115.256 37.4027 115.252 37.4066 115.241 37.4127C115.23 37.4191 115.211 37.4288 115.179 37.4393L115.812 39.3367ZM117.144 38.0754C117.36 37.5355 117.431 36.8412 117.431 36.084H115.431C115.431 36.7668 115.359 37.1525 115.287 37.3326L117.144 38.0754ZM117.431 36.084V28.812H115.431V36.084H117.431ZM117.273 28.2711L112.017 20.0991L110.334 21.1809L115.59 29.3529L117.273 28.2711ZM112.019 20.1022C111.122 18.6965 110.316 17.6355 109.604 17.0093L108.283 18.5107C108.771 18.9405 109.453 19.7995 110.332 21.1778L112.019 20.1022ZM109.635 17.038C109.028 16.4563 108.289 15.932 107.467 15.932V17.932C107.447 17.932 107.502 17.9264 107.653 18.0111C107.802 18.0947 108.002 18.2424 108.252 18.482L109.635 17.038ZM107.467 15.932C107.624 15.932 107.806 15.9741 107.975 16.0864C108.137 16.1946 108.231 16.3302 108.281 16.4308C108.329 16.5275 108.346 16.6076 108.353 16.6461C108.36 16.6873 108.359 16.713 108.359 16.716H106.359C106.359 16.8391 106.37 17.0803 106.492 17.3252C106.56 17.4618 106.676 17.6244 106.866 17.7505C107.061 17.8809 107.275 17.932 107.467 17.932V15.932ZM108.359 16.716C108.359 16.719 108.36 16.7447 108.353 16.7859C108.346 16.8244 108.329 16.9045 108.281 17.0012C108.231 17.1018 108.137 17.2374 107.975 17.3456C107.806 17.4579 107.624 17.5 107.467 17.5V15.5C107.275 15.5 107.061 15.5511 106.866 15.6814C106.676 15.8076 106.56 15.9702 106.492 16.1068C106.37 16.3517 106.359 16.5929 106.359 16.716H108.359ZM107.435 17.4995L108.551 17.5355L108.616 15.5365L107.5 15.5005L107.435 17.4995ZM108.493 17.5319C109.02 17.5798 109.433 17.608 109.699 17.608V15.608C109.534 15.608 109.203 15.5882 108.674 15.5401L108.493 17.5319ZM109.699 17.608C110.555 17.608 111.779 17.5836 113.366 17.5355L113.305 15.5365C111.724 15.5844 110.524 15.608 109.699 15.608V17.608ZM113.351 17.5359L115.727 17.4999L115.696 15.5001L113.32 15.5361L113.351 17.5359ZM115.711 17.5C115.441 17.5 115.202 17.3865 115.036 17.2206C114.895 17.0793 114.838 16.9332 114.817 16.8702C114.777 16.7499 114.783 16.6732 114.783 16.716H116.783C116.783 16.6148 116.778 16.4301 116.714 16.2378C116.659 16.0711 116.4 15.5 115.711 15.5V17.5ZM114.783 16.716C114.783 16.7588 114.777 16.6821 114.817 16.5618C114.838 16.4988 114.895 16.3527 115.036 16.2114C115.202 16.0455 115.441 15.932 115.711 15.932V17.932C116.4 17.932 116.659 17.3609 116.714 17.1942C116.778 17.0019 116.783 16.8172 116.783 16.716H114.783ZM115.711 15.932C115.151 15.932 114.583 16.0648 114.115 16.4391L115.364 18.0009C115.376 17.9912 115.456 17.932 115.711 17.932V15.932ZM114.075 16.4726C113.627 16.8707 113.415 17.404 113.415 17.976H115.415C115.415 17.9557 115.417 17.9448 115.418 17.9413C115.419 17.9382 115.418 17.9407 115.416 17.9469C115.413 17.9533 115.409 17.9596 115.406 17.9647C115.402 17.9697 115.4 17.9705 115.404 17.9674L114.075 16.4726ZM113.415 17.976C113.415 18.6352 113.696 19.2837 114.076 19.8809L115.763 18.8071C115.471 18.3483 115.415 18.0848 115.415 17.976H113.415ZM114.075 19.8796L119.007 27.6556L120.696 26.5844L115.764 18.8084L114.075 19.8796ZM120.714 27.6256L124.026 21.9736L122.301 20.9624L118.989 26.6144L120.714 27.6256ZM124.021 21.9825C124.709 20.8362 125.135 19.7267 125.135 18.696H123.135C123.135 19.2013 122.914 19.9398 122.306 20.9535L124.021 21.9825ZM125.135 18.696C125.135 17.8993 124.875 17.1434 124.22 16.6191L122.971 18.1809C123.036 18.2326 123.135 18.3407 123.135 18.696H125.135ZM124.276 16.6672C123.691 16.1236 122.916 15.932 122.119 15.932V17.932C122.619 17.932 122.828 18.0523 122.915 18.1328L124.276 16.6672ZM122.119 15.932C122.276 15.932 122.458 15.9741 122.627 16.0864C122.789 16.1946 122.883 16.3302 122.933 16.4308C122.981 16.5275 122.998 16.6076 123.005 16.6461C123.012 16.6873 123.011 16.713 123.011 16.716H121.011C121.011 16.8391 121.022 17.0803 121.144 17.3252C121.212 17.4618 121.328 17.6244 121.518 17.7506C121.713 17.8809 121.927 17.932 122.119 17.932V15.932ZM123.011 16.716C123.011 16.719 123.012 16.7447 123.005 16.7859C122.998 16.8244 122.981 16.9045 122.933 17.0012C122.883 17.1018 122.789 17.2374 122.627 17.3456C122.458 17.4579 122.276 17.5 122.119 17.5V15.5C121.927 15.5 121.713 15.5511 121.518 15.6814C121.328 15.8076 121.212 15.9702 121.144 16.1068C121.022 16.3517 121.011 16.5929 121.011 16.716H123.011ZM122.101 17.4998L124.009 17.5358L124.046 15.5362L122.138 15.5002L122.101 17.4998ZM123.984 17.5351C125.099 17.5835 126.098 17.608 126.98 17.608V15.608C126.133 15.608 125.164 15.5845 124.071 15.5369L123.984 17.5351ZM126.98 17.608C127.424 17.608 127.945 17.582 128.539 17.5325L128.372 15.5395C127.814 15.586 127.351 15.608 126.98 15.608V17.608ZM128.483 17.5356L129.815 17.4996L129.76 15.5004L128.428 15.5364L128.483 17.5356ZM87.568 68.968L87.6235 67.9695L87.6028 67.9684L87.5821 67.9681L87.568 68.968ZM85.296 68.936L85.3101 67.9361L85.2966 67.9359L85.283 67.9361L85.296 68.936ZM82.832 68.968L82.819 67.9681L82.7961 67.9684L82.7733 67.9697L82.832 68.968ZM83.12 68.456L82.8524 67.4925L82.8451 67.4945L82.8378 67.4966L83.12 68.456ZM83.888 67.848L82.9818 67.4251L82.9751 67.4395L82.9689 67.4541L83.888 67.848ZM84.112 58.952H85.112V57.952H84.112V58.952ZM72.176 58.952V57.952H71.176V58.952H72.176ZM72.368 67.848L71.4395 68.2194L71.455 68.258L71.4736 68.2952L72.368 67.848ZM73.136 68.456L72.8538 69.4154L72.8611 69.4175L72.8684 69.4195L73.136 68.456ZM73.36 68.968L73.4155 67.9695L73.3944 67.9684L73.3733 67.9681L73.36 68.968ZM70.96 68.936L70.9733 67.9361L70.9595 67.9359L70.9457 67.9361L70.96 68.936ZM68.72 68.968L68.7057 67.9681L68.6851 67.9684L68.6645 67.9695L68.72 68.968ZM68.848 68.456L68.5804 67.4925L68.5731 67.4945L68.5658 67.4966L68.848 68.456ZM69.616 67.848L68.7098 67.4251L68.7031 67.4395L68.6969 67.4541L69.616 67.848ZM69.616 50.184L68.6969 50.5779L68.7084 50.6049L68.7216 50.6312L69.616 50.184ZM68.848 49.576L68.5152 50.519L68.5474 50.5304L68.5804 50.5395L68.848 49.576ZM67.12 49L67.1396 48.0002L67.1298 48H67.12V49ZM68.752 49.032L68.7996 48.0331L68.7856 48.0325L68.7716 48.0322L68.752 49.032ZM73.392 49.032L73.3716 48.0322L73.3601 48.0324L73.3486 48.0329L73.392 49.032ZM74.96 49V48H74.9498L74.9396 48.0002L74.96 49ZM73.168 49.576L72.8518 48.6273L72.8518 48.6273L73.168 49.576ZM72.368 50.248L71.4618 49.8251L71.4551 49.8395L71.4489 49.8541L72.368 50.248ZM72.176 58.248H71.176V59.248H72.176V58.248ZM84.112 58.248V59.248H85.112V58.248H84.112ZM83.888 50.248L82.9595 50.6194L82.975 50.658L82.9936 50.6952L83.888 50.248ZM83.12 49.576L83.4362 48.6273L83.4362 48.6273L83.12 49.576ZM81.328 49L81.3493 48.0002L81.3386 48H81.328V49ZM82.832 49.032L82.8774 48.033L82.8653 48.0325L82.8533 48.0322L82.832 49.032ZM87.568 49.032L87.548 48.0322L87.5353 48.0325L87.5226 48.033L87.568 49.032ZM89.168 49V48H89.158L89.148 48.0002L89.168 49ZM87.376 49.576L87.6582 50.5354L87.6753 50.5303L87.6922 50.5247L87.376 49.576ZM86.608 50.184L85.7136 49.7368L85.7004 49.7631L85.6889 49.7901L86.608 50.184ZM86.608 67.848L85.6795 68.2194L85.695 68.258L85.7136 68.2952L86.608 67.848ZM87.376 68.456L87.0938 69.4154L87.1011 69.4175L87.1084 69.4195L87.376 68.456ZM89.168 69.616C89.009 69.616 88.8253 69.5734 88.6553 69.4601C88.4916 69.3509 88.3969 69.2138 88.3456 69.1112C88.2962 69.0125 88.2785 68.9299 88.2716 68.8884C88.2642 68.8442 88.264 68.815 88.264 68.808H90.264C90.264 68.6929 90.2549 68.4577 90.1344 68.2168C90.0671 68.0822 89.9524 67.9211 89.7647 67.7959C89.5707 67.6666 89.359 67.616 89.168 67.616V69.616ZM88.264 68.808C88.264 68.801 88.2642 68.7718 88.2716 68.7276C88.2785 68.6861 88.2962 68.6035 88.3456 68.5048C88.3969 68.4022 88.4916 68.2651 88.6553 68.1559C88.8253 68.0426 89.009 68 89.168 68V70C89.359 70 89.5707 69.9494 89.7647 69.8201C89.9524 69.6949 90.0671 69.5338 90.1344 69.3992C90.2549 69.1583 90.264 68.9231 90.264 68.808H88.264ZM89.168 68C88.4921 68 87.9801 67.9894 87.6235 67.9695L87.5125 69.9665C87.9239 69.9893 88.4786 70 89.168 70V68ZM87.5821 67.9681L85.3101 67.9361L85.2819 69.9359L87.5539 69.9679L87.5821 67.9681ZM85.283 67.9361L82.819 67.9681L82.845 69.9679L85.309 69.9359L85.283 67.9361ZM82.7733 67.9697C82.4395 67.9894 81.9607 68 81.328 68V70C81.9753 70 82.4992 69.9893 82.8907 69.9663L82.7733 67.9697ZM81.328 68C81.487 68 81.6707 68.0426 81.8407 68.1559C82.0044 68.2651 82.0991 68.4022 82.1504 68.5048C82.1998 68.6035 82.2175 68.6861 82.2244 68.7276C82.2318 68.7718 82.232 68.801 82.232 68.808H80.232C80.232 68.9231 80.2411 69.1583 80.3616 69.3992C80.4289 69.5338 80.5436 69.6949 80.7313 69.8201C80.9253 69.9494 81.137 70 81.328 70V68ZM82.232 68.808C82.232 68.815 82.2318 68.8442 82.2244 68.8884C82.2175 68.9299 82.1998 69.0125 82.1504 69.1112C82.0991 69.2138 82.0044 69.3509 81.8407 69.4601C81.6707 69.5734 81.487 69.616 81.328 69.616V67.616C81.137 67.616 80.9253 67.6666 80.7313 67.7959C80.5436 67.9211 80.4289 68.0822 80.3616 68.2168C80.2411 68.4577 80.232 68.6929 80.232 68.808H82.232ZM81.328 69.616C82.1692 69.616 82.8912 69.5656 83.4022 69.4154L82.8378 67.4966C82.6235 67.5597 82.1508 67.616 81.328 67.616V69.616ZM83.3876 69.4195C83.9909 69.2519 84.5327 68.8824 84.8071 68.2419L82.9689 67.4541C82.9686 67.4547 82.9702 67.4511 82.9741 67.4459C82.978 67.4408 82.9807 67.4388 82.9793 67.44C82.9762 67.4424 82.9435 67.4672 82.8524 67.4925L83.3876 69.4195ZM84.7942 68.2709C85.0369 67.7507 85.112 67.0942 85.112 66.408H83.112C83.112 67.0018 83.0378 67.3053 82.9818 67.4251L84.7942 68.2709ZM85.112 66.408V58.952H83.112V66.408H85.112ZM84.112 57.952H72.176V59.952H84.112V57.952ZM71.176 58.952V66.408H73.176V58.952H71.176ZM71.176 66.408C71.176 67.0852 71.2396 67.7195 71.4395 68.2194L73.2965 67.4766C73.2404 67.3365 73.176 67.0108 73.176 66.408H71.176ZM71.4736 68.2952C71.764 68.8762 72.2636 69.2418 72.8538 69.4154L73.4182 67.4966C73.2831 67.4569 73.2706 67.4172 73.2624 67.4008L71.4736 68.2952ZM72.8684 69.4195C73.3907 69.5646 74.1134 69.616 74.96 69.616V67.616C74.1426 67.616 73.6493 67.5607 73.4036 67.4925L72.8684 69.4195ZM74.96 69.616C74.6881 69.616 74.4478 69.502 74.2809 69.3351C74.1385 69.1928 74.081 69.0452 74.0593 68.9802C74.0179 68.8559 74.024 68.7732 74.024 68.808H76.024C76.024 68.7148 76.0195 68.5361 75.9567 68.3478C75.9025 68.1851 75.6456 67.616 74.96 67.616V69.616ZM74.024 68.808C74.024 68.8428 74.0179 68.7601 74.0593 68.6358C74.081 68.5708 74.1385 68.4232 74.2809 68.2809C74.4478 68.114 74.6881 68 74.96 68V70C75.6456 70 75.9025 69.4309 75.9567 69.2682C76.0195 69.0799 76.024 68.9012 76.024 68.808H74.024ZM74.96 68C74.2841 68 73.7721 67.9894 73.4155 67.9695L73.3045 69.9665C73.7159 69.9893 74.2706 70 74.96 70V68ZM73.3733 67.9681L70.9733 67.9361L70.9467 69.9359L73.3467 69.9679L73.3733 67.9681ZM70.9457 67.9361L68.7057 67.9681L68.7343 69.9679L70.9743 69.9359L70.9457 67.9361ZM68.6645 67.9695C68.3083 67.9893 67.786 68 67.088 68V70C67.798 70 68.3637 69.9893 68.7755 69.9665L68.6645 67.9695ZM67.088 68C67.3599 68 67.6002 68.114 67.7671 68.2809C67.9095 68.4232 67.967 68.5708 67.9887 68.6358C68.0301 68.7601 68.024 68.8428 68.024 68.808H66.024C66.024 68.9012 66.0285 69.0799 66.0913 69.2682C66.1455 69.4309 66.4024 70 67.088 70V68ZM68.024 68.808C68.024 68.7732 68.0301 68.8559 67.9887 68.9802C67.967 69.0452 67.9095 69.1928 67.7671 69.3351C67.6002 69.502 67.3599 69.616 67.088 69.616V67.616C66.4024 67.616 66.1455 68.1851 66.0913 68.3478C66.0285 68.5361 66.024 68.7148 66.024 68.808H68.024ZM67.088 69.616C67.9108 69.616 68.6205 69.5653 69.1302 69.4154L68.5658 67.4966C68.3501 67.5601 67.8865 67.616 67.088 67.616V69.616ZM69.1156 69.4195C69.7189 69.2519 70.2607 68.8824 70.5351 68.2419L68.6969 67.4541C68.6966 67.4547 68.6982 67.4511 68.7021 67.4459C68.706 67.4408 68.7087 67.4388 68.7073 67.44C68.7042 67.4424 68.6715 67.4672 68.5804 67.4925L69.1156 69.4195ZM70.5222 68.2709C70.7649 67.7507 70.84 67.0942 70.84 66.408H68.84C68.84 67.0018 68.7658 67.3053 68.7098 67.4251L70.5222 68.2709ZM70.84 66.408V51.592H68.84V66.408H70.84ZM70.84 51.592C70.84 50.914 70.7674 50.2507 70.5104 49.7368L68.7216 50.6312C68.7633 50.7146 68.84 50.99 68.84 51.592H70.84ZM70.5351 49.7901C70.2607 49.1496 69.7189 48.7801 69.1156 48.6125L68.5804 50.5395C68.6715 50.5648 68.7042 50.5896 68.7073 50.592C68.7087 50.5932 68.706 50.5912 68.7021 50.5861C68.6982 50.5809 68.6966 50.5773 68.6969 50.5779L70.5351 49.7901ZM69.1808 48.633C68.649 48.4453 67.9292 48.384 67.12 48.384V50.384C67.8895 50.384 68.3217 50.4507 68.5152 50.519L69.1808 48.633ZM67.12 48.384C67.3919 48.384 67.6322 48.498 67.7991 48.6649C67.9415 48.8072 67.999 48.9548 68.0207 49.0198C68.0621 49.1441 68.056 49.2268 68.056 49.192H66.056C66.056 49.2852 66.0605 49.4639 66.1233 49.6522C66.1775 49.8149 66.4344 50.384 67.12 50.384V48.384ZM68.056 49.192C68.056 49.1572 68.0621 49.2399 68.0207 49.3642C67.999 49.4292 67.9415 49.5768 67.7991 49.7191C67.6322 49.886 67.3919 50 67.12 50V48C66.4344 48 66.1775 48.5691 66.1233 48.7318C66.0605 48.9201 66.056 49.0988 66.056 49.192H68.056ZM67.1004 49.9998L68.7324 50.0318L68.7716 48.0322L67.1396 48.0002L67.1004 49.9998ZM68.7044 50.0309C69.6086 50.0739 70.362 50.096 70.96 50.096V48.096C70.406 48.096 69.6874 48.0754 68.7996 48.0331L68.7044 50.0309ZM70.96 50.096C71.62 50.096 72.4464 50.0741 73.4354 50.0311L73.3486 48.0329C72.3749 48.0753 71.58 48.096 70.96 48.096V50.096ZM73.4124 50.0318L74.9804 49.9998L74.9396 48.0002L73.3716 48.0322L73.4124 50.0318ZM74.96 50C74.6881 50 74.4478 49.886 74.2809 49.7191C74.1385 49.5768 74.081 49.4292 74.0593 49.3642C74.0179 49.2399 74.024 49.1572 74.024 49.192H76.024C76.024 49.0988 76.0195 48.9201 75.9567 48.7318C75.9025 48.5691 75.6456 48 74.96 48V50ZM74.024 49.192C74.024 49.2268 74.0179 49.1441 74.0593 49.0198C74.081 48.9548 74.1385 48.8072 74.2809 48.6649C74.4478 48.498 74.6881 48.384 74.96 48.384V50.384C75.6456 50.384 75.9025 49.8149 75.9567 49.6522C76.0195 49.4639 76.024 49.2852 76.024 49.192H74.024ZM74.96 48.384C74.1271 48.384 73.3955 48.4461 72.8518 48.6273L73.4842 50.5247C73.7085 50.4499 74.1715 50.384 74.96 50.384V48.384ZM72.8518 48.6273C72.249 48.8282 71.7446 49.2191 71.4618 49.8251L73.2742 50.6709C73.29 50.6369 73.319 50.5798 73.4842 50.5247L72.8518 48.6273ZM71.4489 49.8541C71.2375 50.3472 71.176 50.9864 71.176 51.656H73.176C73.176 51.0456 73.2425 50.7461 73.2871 50.6419L71.4489 49.8541ZM71.176 51.656V58.248H73.176V51.656H71.176ZM72.176 59.248H84.112V57.248H72.176V59.248ZM85.112 58.248V51.656H83.112V58.248H85.112ZM85.112 51.656C85.112 50.978 85.0394 50.3147 84.7824 49.8008L82.9936 50.6952C83.0353 50.7786 83.112 51.054 83.112 51.656H85.112ZM84.8165 49.8766C84.5598 49.2348 84.0454 48.8304 83.4362 48.6273L82.8038 50.5247C82.8933 50.5545 82.9305 50.583 82.9415 50.5926C82.9491 50.5992 82.9534 50.604 82.9595 50.6194L84.8165 49.8766ZM83.4362 48.6273C82.8925 48.4461 82.1609 48.384 81.328 48.384V50.384C82.1165 50.384 82.5795 50.4499 82.8038 50.5247L83.4362 48.6273ZM81.328 48.384C81.487 48.384 81.6707 48.4266 81.8407 48.5399C82.0044 48.6491 82.0991 48.7862 82.1504 48.8888C82.1998 48.9875 82.2175 49.0701 82.2244 49.1116C82.2318 49.1558 82.232 49.185 82.232 49.192H80.232C80.232 49.3071 80.2411 49.5423 80.3616 49.7832C80.4289 49.9178 80.5436 50.0789 80.7313 50.2041C80.9253 50.3334 81.137 50.384 81.328 50.384V48.384ZM82.232 49.192C82.232 49.199 82.2318 49.2282 82.2244 49.2724C82.2175 49.3139 82.1998 49.3965 82.1504 49.4952C82.0991 49.5978 82.0044 49.7349 81.8407 49.8441C81.6707 49.9574 81.487 50 81.328 50V48C81.137 48 80.9253 48.0506 80.7313 48.1799C80.5436 48.3051 80.4289 48.4662 80.3616 48.6008C80.2411 48.8417 80.232 49.0769 80.232 49.192H82.232ZM81.3067 49.9998L82.8107 50.0318L82.8533 48.0322L81.3493 48.0002L81.3067 49.9998ZM82.7866 50.031C83.7357 50.0741 84.5728 50.096 85.296 50.096V48.096C84.6112 48.096 83.8056 48.0752 82.8774 48.033L82.7866 50.031ZM85.296 50.096C85.8935 50.096 86.6677 50.074 87.6134 50.031L87.5226 48.033C86.5909 48.0754 85.8505 48.096 85.296 48.096V50.096ZM87.588 50.0318L89.188 49.9998L89.148 48.0002L87.548 48.0322L87.588 50.0318ZM89.168 50C89.009 50 88.8253 49.9574 88.6553 49.8441C88.4916 49.7349 88.3969 49.5978 88.3456 49.4952C88.2962 49.3965 88.2785 49.3139 88.2716 49.2724C88.2642 49.2282 88.264 49.199 88.264 49.192H90.264C90.264 49.0769 90.2549 48.8417 90.1344 48.6008C90.0671 48.4662 89.9524 48.3051 89.7647 48.1799C89.5707 48.0506 89.359 48 89.168 48V50ZM88.264 49.192C88.264 49.185 88.2642 49.1558 88.2716 49.1116C88.2785 49.0701 88.2962 48.9875 88.3456 48.8888C88.3969 48.7862 88.4916 48.6491 88.6553 48.5399C88.8253 48.4266 89.009 48.384 89.168 48.384V50.384C89.359 50.384 89.5707 50.3334 89.7647 50.2041C89.9524 50.0789 90.0671 49.9178 90.1344 49.7832C90.2549 49.5423 90.264 49.3071 90.264 49.192H88.264ZM89.168 48.384C88.3351 48.384 87.6035 48.4461 87.0598 48.6273L87.6922 50.5247C87.9165 50.4499 88.3795 50.384 89.168 50.384V48.384ZM87.0938 48.6166C86.5036 48.7902 86.004 49.1558 85.7136 49.7368L87.5024 50.6312C87.5106 50.6148 87.5231 50.5751 87.6582 50.5354L87.0938 48.6166ZM85.6889 49.7901C85.4775 50.2832 85.416 50.9224 85.416 51.592H87.416C87.416 50.9816 87.4825 50.6821 87.5271 50.5779L85.6889 49.7901ZM85.416 51.592V66.408H87.416V51.592H85.416ZM85.416 66.408C85.416 67.0852 85.4796 67.7195 85.6795 68.2194L87.5365 67.4766C87.4804 67.3365 87.416 67.0108 87.416 66.408H85.416ZM85.7136 68.2952C86.004 68.8762 86.5036 69.2418 87.0938 69.4154L87.6582 67.4966C87.5231 67.4569 87.5106 67.4172 87.5024 67.4008L85.7136 68.2952ZM87.1084 69.4195C87.6294 69.5643 88.34 69.616 89.168 69.616V67.616C88.3747 67.616 87.8906 67.5611 87.6436 67.4925L87.1084 69.4195ZM104.041 50.216L103.277 50.8619L103.291 50.8778L103.305 50.8931L104.041 50.216ZM101.961 49L101.983 48.0003L101.972 48H101.961V49ZM103.368 49.032L103.427 48.0337L103.409 48.0327L103.391 48.0323L103.368 49.032ZM106.825 49.032L106.801 48.0323L106.781 48.0327L106.762 48.0339L106.825 49.032ZM108.169 49V48H108.157L108.145 48.0003L108.169 49ZM106.249 50.216L107.029 50.8407L107.035 50.8333L107.041 50.8257L106.249 50.216ZM103.529 67.368L104.23 68.0806L104.236 68.0751L103.529 67.368ZM93.8005 68.488L93.3341 69.3726L93.3406 69.376L93.8005 68.488ZM91.0485 65.864L90.1812 66.3619L90.1853 66.3689L91.0485 65.864ZM89.8645 50.184L88.9454 50.5779L88.9454 50.5779L89.8645 50.184ZM89.1285 49.576L88.7957 50.519L88.8208 50.5279L88.8463 50.5354L89.1285 49.576ZM87.4005 49L87.4205 48.0002L87.4105 48H87.4005V49ZM89.0005 49.032L89.0459 48.033L89.0332 48.0325L89.0205 48.0322L89.0005 49.032ZM93.5125 49.032L93.4912 48.0322L93.4792 48.0325L93.4671 48.033L93.5125 49.032ZM95.0165 49V48H95.0059L94.9952 48.0002L95.0165 49ZM93.3205 49.576L92.9877 48.633L92.9877 48.633L93.3205 49.576ZM92.5845 50.248L93.5036 50.6419L93.5084 50.6307L93.513 50.6194L92.5845 50.248ZM94.0565 66.472L93.2903 67.1146L93.2955 67.1207L94.0565 66.472ZM103.177 66.664L102.431 65.998L102.43 65.9988L103.177 66.664ZM105.777 52.616C105.777 51.4149 105.502 50.3276 104.776 49.5389L103.305 50.8931C103.56 51.1711 103.777 51.6838 103.777 52.616H105.777ZM104.804 49.5701C104.096 48.734 103.088 48.384 101.961 48.384V50.384C102.667 50.384 103.046 50.5886 103.277 50.8619L104.804 49.5701ZM101.961 48.384C102.119 48.384 102.303 48.4266 102.473 48.5399C102.637 48.6491 102.732 48.7862 102.783 48.8888C102.832 48.9875 102.85 49.0701 102.857 49.1116C102.864 49.1558 102.865 49.185 102.865 49.192H100.865C100.865 49.3071 100.874 49.5423 100.994 49.7832C101.061 49.9178 101.176 50.0789 101.364 50.204C101.558 50.3334 101.77 50.384 101.961 50.384V48.384ZM102.865 49.192C102.865 49.199 102.864 49.2282 102.857 49.2724C102.85 49.3139 102.832 49.3965 102.783 49.4952C102.732 49.5978 102.637 49.7349 102.473 49.8441C102.303 49.9574 102.119 50 101.961 50V48C101.77 48 101.558 48.0506 101.364 48.1799C101.176 48.3051 101.061 48.4662 100.994 48.6008C100.874 48.8417 100.865 49.0769 100.865 49.192H102.865ZM101.938 49.9997L103.346 50.0317L103.391 48.0323L101.983 48.0003L101.938 49.9997ZM103.31 50.0303C104.046 50.0736 104.675 50.096 105.193 50.096V48.096C104.728 48.096 104.141 48.0757 103.427 48.0337L103.31 50.0303ZM105.193 50.096C105.628 50.096 106.195 50.0733 106.887 50.0301L106.762 48.0339C106.088 48.0761 105.568 48.096 105.193 48.096V50.096ZM106.848 50.0317L108.192 49.9997L108.145 48.0003L106.801 48.0323L106.848 50.0317ZM108.169 50C107.897 50 107.656 49.886 107.489 49.7191C107.347 49.5768 107.289 49.4292 107.268 49.3642C107.226 49.2399 107.233 49.1572 107.233 49.192H109.233C109.233 49.0988 109.228 48.9201 109.165 48.7318C109.111 48.5691 108.854 48 108.169 48V50ZM107.233 49.192C107.233 49.2268 107.226 49.1441 107.268 49.0198C107.289 48.9548 107.347 48.8072 107.489 48.6649C107.656 48.498 107.897 48.384 108.169 48.384V50.384C108.854 50.384 109.111 49.8149 109.165 49.6522C109.228 49.4639 109.233 49.2852 109.233 49.192H107.233ZM108.169 48.384C107.081 48.384 106.114 48.7511 105.456 49.6063L107.041 50.8257C107.237 50.5716 107.55 50.384 108.169 50.384V48.384ZM105.468 49.5913C104.839 50.3773 104.609 51.4425 104.609 52.616H106.609C106.609 51.6562 106.805 51.1214 107.029 50.8407L105.468 49.5913ZM104.609 52.616V61.672H106.609V52.616H104.609ZM104.609 61.672C104.609 63.882 103.979 65.503 102.821 66.6609L104.236 68.0751C105.851 66.4597 106.609 64.2833 106.609 61.672H104.609ZM102.827 66.6554C101.663 67.8014 100.078 68.416 97.9605 68.416V70.416C100.494 70.416 102.621 69.6652 104.23 68.0806L102.827 66.6554ZM97.9605 68.416C96.5141 68.416 95.2902 68.1333 94.2604 67.6L93.3406 69.376C94.7002 70.08 96.2495 70.416 97.9605 70.416V68.416ZM94.2669 67.6034C93.2565 67.0707 92.4775 66.3265 91.9117 65.3591L90.1853 66.3689C90.9421 67.6628 91.9979 68.668 93.3341 69.3726L94.2669 67.6034ZM91.9158 65.3661C91.3542 64.3879 91.0565 63.2209 91.0565 61.832H89.0565C89.0565 63.5151 89.4201 65.0361 90.1812 66.3619L91.9158 65.3661ZM91.0565 61.832V51.592H89.0565V61.832H91.0565ZM91.0565 51.592C91.0565 50.9224 90.995 50.2832 90.7836 49.7901L88.9454 50.5779C88.99 50.6821 89.0565 50.9816 89.0565 51.592H91.0565ZM90.7836 49.7901C90.5184 49.1711 90.0072 48.7921 89.4107 48.6166L88.8463 50.5354C88.9219 50.5576 88.9469 50.5784 88.9476 50.579C88.9483 50.5795 88.9465 50.5781 88.9445 50.5753C88.9424 50.5725 88.943 50.5725 88.9454 50.5779L90.7836 49.7901ZM89.4613 48.633C88.9295 48.4453 88.2097 48.384 87.4005 48.384V50.384C88.17 50.384 88.6022 50.4507 88.7957 50.519L89.4613 48.633ZM87.4005 48.384C87.6724 48.384 87.9127 48.498 88.0796 48.6649C88.222 48.8072 88.2795 48.9548 88.3012 49.0198C88.3426 49.1441 88.3365 49.2268 88.3365 49.192H86.3365C86.3365 49.2852 86.341 49.4639 86.4038 49.6522C86.458 49.8149 86.7149 50.384 87.4005 50.384V48.384ZM88.3365 49.192C88.3365 49.1572 88.3426 49.2399 88.3012 49.3642C88.2795 49.4292 88.222 49.5768 88.0796 49.7191C87.9127 49.886 87.6724 50 87.4005 50V48C86.7149 48 86.458 48.5691 86.4038 48.7318C86.341 48.9201 86.3365 49.0988 86.3365 49.192H88.3365ZM87.3805 49.9998L88.9805 50.0318L89.0205 48.0322L87.4205 48.0002L87.3805 49.9998ZM88.9551 50.031C89.8994 50.0739 90.6528 50.096 91.2085 50.096V48.096C90.6975 48.096 89.9789 48.0754 89.0459 48.033L88.9551 50.031ZM91.2085 50.096C91.827 50.096 92.6116 50.074 93.5579 50.031L93.4671 48.033C92.5361 48.0754 91.7847 48.096 91.2085 48.096V50.096ZM93.5338 50.0318L95.0378 49.9998L94.9952 48.0002L93.4912 48.0322L93.5338 50.0318ZM95.0165 50C94.8575 50 94.6738 49.9574 94.5038 49.8441C94.3401 49.7349 94.2454 49.5978 94.1941 49.4952C94.1447 49.3965 94.127 49.3139 94.1201 49.2724C94.1127 49.2282 94.1125 49.199 94.1125 49.192H96.1125C96.1125 49.0769 96.1034 48.8417 95.9829 48.6008C95.9156 48.4662 95.8009 48.3051 95.6132 48.1799C95.4192 48.0506 95.2075 48 95.0165 48V50ZM94.1125 49.192C94.1125 49.185 94.1127 49.1558 94.1201 49.1116C94.127 49.0701 94.1447 48.9875 94.1941 48.8888C94.2454 48.7862 94.3401 48.6491 94.5038 48.5399C94.6738 48.4266 94.8575 48.384 95.0165 48.384V50.384C95.2075 50.384 95.4192 50.3334 95.6132 50.204C95.8009 50.0789 95.9156 49.9178 95.9829 49.7832C96.1034 49.5423 96.1125 49.3071 96.1125 49.192H94.1125ZM95.0165 48.384C94.2249 48.384 93.5178 48.4459 92.9877 48.633L93.6533 50.519C93.8486 50.4501 94.2721 50.384 95.0165 50.384V48.384ZM92.9877 48.633C92.3886 48.8444 91.9041 49.2564 91.656 49.8766L93.513 50.6194C93.5232 50.594 93.5316 50.585 93.5388 50.5785C93.5481 50.57 93.5786 50.5454 93.6533 50.519L92.9877 48.633ZM91.6654 49.8541C91.454 50.3472 91.3925 50.9864 91.3925 51.656H93.3925C93.3925 51.0456 93.459 50.7461 93.5036 50.6419L91.6654 49.8541ZM91.3925 51.656V60.712H93.3925V51.656H91.3925ZM91.3925 60.712C91.3925 63.3594 91.974 65.5452 93.2903 67.1146L94.8227 65.8294C93.9203 64.7535 93.3925 63.0993 93.3925 60.712H91.3925ZM93.2955 67.1207C94.6305 68.6868 96.5008 69.424 98.7605 69.424V67.424C96.9669 67.424 95.7012 66.8599 94.8175 65.8233L93.2955 67.1207ZM98.7605 69.424C100.88 69.424 102.649 68.7594 103.923 67.3292L102.43 65.9988C101.613 66.9152 100.439 67.424 98.7605 67.424V69.424ZM103.922 67.33C105.199 65.9002 105.777 63.9818 105.777 61.704H103.777C103.777 63.6502 103.287 65.0385 102.431 65.998L103.922 67.33ZM105.777 61.704V52.616H103.777V61.704H105.777ZM115.792 57.736L115.435 56.8018L115.704 58.7322L115.792 57.736ZM119.888 59.464L119.188 60.1785L119.195 60.1859L119.203 60.1931L119.888 59.464ZM120.592 66.184L121.438 66.7158L121.438 66.7158L120.592 66.184ZM118.224 68.36L118.686 69.2466L118.693 69.2429L118.224 68.36ZM112.655 69.032L112.734 68.0351L112.727 68.0345L112.655 69.032ZM111.6 68.968L111.652 67.9694L111.652 67.9694L111.6 68.968ZM110.223 68.936V67.936H110.216L110.209 67.9361L110.223 68.936ZM108.015 68.968L108.001 67.9681L107.982 67.9684L107.963 67.9694L108.015 68.968ZM108.079 68.456L108.362 69.4154L108.379 69.4103L108.396 69.4047L108.079 68.456ZM108.847 67.816L107.953 67.3688L107.94 67.3951L107.928 67.4221L108.847 67.816ZM108.879 50.184L107.96 50.5779L107.96 50.5779L108.879 50.184ZM108.143 49.576L107.811 50.519L107.836 50.5279L107.861 50.5354L108.143 49.576ZM106.447 49L106.468 48.0002L106.458 48H106.447V49ZM108.015 49.032L108.063 48.0331L108.049 48.0325L108.036 48.0322L108.015 49.032ZM111.28 49.064L111.217 48.0659L111.213 48.0662L111.28 49.064ZM112.143 49L112.234 49.9959L112.24 49.9953L112.143 49ZM118.16 50.056L117.518 50.8228L117.518 50.8228L118.16 50.056ZM118.543 55.88L119.31 56.5223L119.318 56.5121L118.543 55.88ZM112.175 49.576L112.492 50.5247L112.513 50.5175L112.534 50.5093L112.175 49.576ZM111.6 50.184L112.528 50.5554L112.528 50.5554L111.6 50.184ZM111.407 57.736H110.407V58.714L111.385 58.7358L111.407 57.736ZM112.847 57.768L112.825 58.7678L112.836 58.768H112.847V57.768ZM116.111 56.552L115.366 55.8852L115.361 55.8907L115.356 55.8963L116.111 56.552ZM116.272 50.504L115.511 51.1529L115.515 51.1586L115.52 51.1641L116.272 50.504ZM117.84 67.336L118.566 68.0233L118.575 68.0135L117.84 67.336ZM117.552 60.008L116.814 60.683L116.821 60.6912L116.829 60.6992L117.552 60.008ZM113.712 58.472L113.676 59.4714L113.687 59.4718L113.699 59.4719L113.712 58.472ZM111.407 58.536L111.339 57.5383L110.407 57.6019V58.536H111.407ZM111.632 67.656L110.737 68.1032L110.749 68.128L110.763 68.1521L111.632 67.656ZM112.528 68.328L112.197 69.2719L112.218 69.2793L112.24 69.2858L112.528 68.328ZM115.704 58.7322C117.227 58.8655 118.36 59.3679 119.188 60.1785L120.587 58.7495C119.367 57.5547 117.769 56.9052 115.879 56.7398L115.704 58.7322ZM119.203 60.1931C120.044 60.9829 120.455 61.9338 120.455 63.112H122.455C122.455 61.3889 121.821 59.9078 120.572 58.7349L119.203 60.1931ZM120.455 63.112C120.455 64.0632 120.216 64.9014 119.745 65.6522L121.438 66.7158C122.119 65.6319 122.455 64.4221 122.455 63.112H120.455ZM119.745 65.6522C119.266 66.4143 118.61 67.0217 117.754 67.4771L118.693 69.2429C119.842 68.6316 120.765 67.7884 121.438 66.7158L119.745 65.6522ZM117.761 67.4734C116.939 67.9025 115.991 68.128 114.896 68.128V70.128C116.275 70.128 117.546 69.8415 118.686 69.2466L117.761 67.4734ZM114.896 68.128C114.243 68.128 113.523 68.0974 112.734 68.0351L112.577 70.0289C113.409 70.0946 114.182 70.128 114.896 70.128V68.128ZM112.727 68.0345C112.42 68.0126 112.062 67.9909 111.652 67.9694L111.547 69.9666C111.948 69.9877 112.294 70.0087 112.584 70.0295L112.727 68.0345ZM111.652 67.9694C111.225 67.9469 110.749 67.936 110.223 67.936V69.936C110.722 69.936 111.163 69.9464 111.547 69.9666L111.652 67.9694ZM110.209 67.9361L108.001 67.9681L108.03 69.9679L110.238 69.9359L110.209 67.9361ZM107.963 67.9694C107.583 67.9894 107.059 68 106.383 68V70C107.074 70 107.637 69.9893 108.068 69.9666L107.963 67.9694ZM106.383 68C106.655 68 106.896 68.114 107.063 68.2809C107.205 68.4232 107.263 68.5708 107.284 68.6358C107.326 68.7601 107.319 68.8428 107.319 68.808H105.319C105.319 68.9012 105.324 69.0799 105.387 69.2682C105.441 69.4309 105.698 70 106.383 70V68ZM107.319 68.808C107.319 68.7732 107.326 68.8559 107.284 68.9802C107.263 69.0452 107.205 69.1928 107.063 69.3351C106.896 69.502 106.655 69.616 106.383 69.616V67.616C105.698 67.616 105.441 68.1851 105.387 68.3478C105.324 68.5361 105.319 68.7148 105.319 68.808H107.319ZM106.383 69.616C107.17 69.616 107.855 69.5644 108.362 69.4154L107.797 67.4966C107.579 67.5609 107.133 67.616 106.383 67.616V69.616ZM108.396 69.4047C108.979 69.2103 109.499 68.8334 109.767 68.2099L107.928 67.4221C107.928 67.4226 107.929 67.4235 107.919 67.4318C107.905 67.4435 107.862 67.4745 107.763 67.5073L108.396 69.4047ZM109.742 68.2632C109.999 67.7493 110.071 67.086 110.071 66.408H108.071C108.071 67.01 107.995 67.2854 107.953 67.3688L109.742 68.2632ZM110.071 66.408V51.592H108.071V66.408H110.071ZM110.071 51.592C110.071 50.9224 110.01 50.2832 109.799 49.7901L107.96 50.5779C108.005 50.6821 108.071 50.9816 108.071 51.592H110.071ZM109.799 49.7901C109.533 49.1711 109.022 48.7921 108.426 48.6166L107.861 50.5354C107.937 50.5576 107.962 50.5784 107.963 50.579C107.963 50.5795 107.962 50.5781 107.959 50.5753C107.957 50.5725 107.958 50.5725 107.96 50.5779L109.799 49.7901ZM108.476 48.633C107.946 48.4459 107.239 48.384 106.447 48.384V50.384C107.192 50.384 107.615 50.4501 107.811 50.519L108.476 48.633ZM106.447 48.384C106.606 48.384 106.79 48.4266 106.96 48.5399C107.124 48.6491 107.219 48.7862 107.27 48.8888C107.319 48.9875 107.337 49.0701 107.344 49.1116C107.351 49.1558 107.351 49.185 107.351 49.192H105.351C105.351 49.3071 105.361 49.5423 105.481 49.7832C105.548 49.9178 105.663 50.0789 105.851 50.204C106.045 50.3334 106.257 50.384 106.447 50.384V48.384ZM107.351 49.192C107.351 49.199 107.351 49.2282 107.344 49.2724C107.337 49.3139 107.319 49.3965 107.27 49.4952C107.219 49.5978 107.124 49.7349 106.96 49.8441C106.79 49.9574 106.606 50 106.447 50V48C106.257 48 106.045 48.0506 105.851 48.1799C105.663 48.3051 105.548 48.4662 105.481 48.6008C105.361 48.8417 105.351 49.0769 105.351 49.192H107.351ZM106.427 49.9998L107.995 50.0318L108.036 48.0322L106.468 48.0002L106.427 49.9998ZM107.968 50.0309C108.872 50.0739 109.625 50.096 110.223 50.096V48.096C109.67 48.096 108.951 48.0754 108.063 48.0331L107.968 50.0309ZM110.223 50.096C110.626 50.096 111 50.0848 111.346 50.0618L111.213 48.0662C110.919 48.0858 110.589 48.096 110.223 48.096V50.096ZM111.342 50.0621C111.689 50.0404 111.987 50.0184 112.234 49.9959L112.053 48.0041C111.831 48.0243 111.553 48.045 111.217 48.0659L111.342 50.0621ZM112.24 49.9953C112.873 49.9341 113.47 49.904 114.031 49.904V47.904C113.399 47.904 112.737 47.9379 112.047 48.0047L112.24 49.9953ZM114.031 49.904C115.751 49.904 116.854 50.2676 117.518 50.8228L118.801 49.2892C117.63 48.3084 115.981 47.904 114.031 47.904V49.904ZM117.518 50.8228C118.19 51.3861 118.536 52.1204 118.536 53.128H120.536C120.536 51.5756 119.963 50.2619 118.801 49.2892L117.518 50.8228ZM118.536 53.128C118.536 53.9163 118.288 54.6115 117.769 55.2479L119.318 56.5121C120.122 55.5272 120.536 54.3877 120.536 53.128H118.536ZM117.777 55.2378C117.247 55.8706 116.484 56.4013 115.435 56.8018L116.148 58.6702C117.446 58.1747 118.518 57.468 119.31 56.5222L117.777 55.2378ZM113.392 48.416C112.817 48.416 112.266 48.4699 111.817 48.6427L112.534 50.5093C112.64 50.4688 112.899 50.416 113.392 50.416V48.416ZM111.859 48.6273C111.25 48.8303 110.876 49.3011 110.671 49.8126L112.528 50.5554C112.556 50.4861 112.574 50.4706 112.565 50.4797C112.561 50.4847 112.551 50.4936 112.536 50.5032C112.521 50.5128 112.506 50.52 112.492 50.5247L111.859 48.6273ZM110.671 49.8126C110.47 50.315 110.407 50.9625 110.407 51.656H112.407C112.407 51.0268 112.473 50.693 112.528 50.5554L110.671 49.8126ZM110.407 51.656V57.736H112.407V51.656H110.407ZM111.385 58.7358L112.825 58.7678L112.87 56.7682L111.43 56.7362L111.385 58.7358ZM112.847 58.768C114.497 58.768 115.91 58.3097 116.867 57.2077L115.356 55.8963C114.905 56.4157 114.142 56.768 112.847 56.768V58.768ZM116.857 57.2188C117.78 56.1871 118.2 54.865 118.2 53.352H116.2C116.2 54.4843 115.894 55.2955 115.366 55.8852L116.857 57.2188ZM118.2 53.352C118.2 51.9831 117.842 50.7761 117.023 49.8439L115.52 51.1641C115.938 51.6399 116.2 52.3316 116.2 53.352H118.2ZM117.032 49.8551C116.161 48.8337 114.873 48.416 113.392 48.416V50.416C114.512 50.416 115.144 50.7236 115.511 51.1529L117.032 49.8551ZM114.415 69.52C116.11 69.52 117.563 69.0832 118.566 68.0232L117.113 66.6488C116.622 67.1675 115.793 67.52 114.415 67.52V69.52ZM118.575 68.0135C119.542 66.9635 119.96 65.5491 119.96 63.912H117.96C117.96 65.2189 117.63 66.0872 117.104 66.6585L118.575 68.0135ZM119.96 63.912C119.96 62.0863 119.424 60.5194 118.274 59.3168L116.829 60.6992C117.556 61.4593 117.96 62.495 117.96 63.912H119.96ZM118.289 59.333C117.147 58.0848 115.581 57.4962 113.724 57.4721L113.699 59.4719C115.127 59.4905 116.121 59.9258 116.814 60.683L118.289 59.333ZM113.747 57.4726C113.102 57.4496 112.296 57.4731 111.339 57.5383L111.476 59.5337C112.397 59.4709 113.127 59.4518 113.676 59.4714L113.747 57.4726ZM110.407 58.536V66.408H112.407V58.536H110.407ZM110.407 66.408C110.407 67.0138 110.489 67.6069 110.737 68.1032L112.526 67.2088C112.475 67.1078 112.407 66.8689 112.407 66.408H110.407ZM110.763 68.1521C111.087 68.7183 111.616 69.0684 112.197 69.2719L112.858 67.3841C112.586 67.289 112.518 67.191 112.5 67.1599L110.763 68.1521ZM112.24 69.2858C112.809 69.4564 113.555 69.52 114.415 69.52V67.52C113.612 67.52 113.1 67.4556 112.815 67.3702L112.24 69.2858Z" fill="#343434" mask="url(#path-4-inside-1_119_877)"/>
</g>
<defs>
<filter id="filter0_d_119_877" x="63.008" y="16.428" width="70.8515" height="60.988" filterUnits="userSpaceOnUse" color-interpolation-filters="sRGB">
<feFlood flood-opacity="0" result="BackgroundImageFix"/>
<feColorMatrix in="SourceAlpha" type="matrix" values="0 0 0 0 0 0 0 0 0 0 0 0 0 0 0 0 0 0 127 0" result="hardAlpha"/>
<feOffset dy="4"/>
<feGaussianBlur stdDeviation="2"/>
<feComposite in2="hardAlpha" operator="out"/>
<feColorMatrix type="matrix" values="0 0 0 0 0 0 0 0 0 0 0 0 0 0 0 0 0 0 0.25 0"/>
<feBlend mode="normal" in2="BackgroundImageFix" result="effect1_dropShadow_119_877"/>
<feBlend mode="normal" in="SourceGraphic" in2="effect1_dropShadow_119_877" result="shape"/>
</filter>
<linearGradient id="paint0_linear_119_877" x1="9" y1="40" x2="57" y2="40" gradientUnits="userSpaceOnUse">
<stop stop-color="#F12711"/>
<stop offset="1" stop-color="#F5AF19"/>
</linearGradient>
<linearGradient id="paint1_linear_119_877" x1="9" y1="40" x2="57" y2="40" gradientUnits="userSpaceOnUse">
<stop stop-color="#40E0D0"/>
<stop offset="0.5" stop-color="#FF8C00"/>
<stop offset="1" stop-color="#FF0080"/>
</linearGradient>
<linearGradient id="paint2_linear_119_877" x1="9" y1="40" x2="57" y2="40" gradientUnits="userSpaceOnUse">
<stop stop-color="#12C2E9"/>
<stop offset="0.5" stop-color="#C471ED"/>
<stop offset="1" stop-color="#F64F59"/>
</linearGradient>
<clipPath id="clip0_119_877">
<rect width="24" height="24" fill="white" transform="translate(9 16)"/>
</clipPath>
<clipPath id="clip1_119_877">
<rect width="24" height="24" fill="white" transform="translate(33 40)"/>
</clipPath>
</defs>
</svg>
