<svg width="24" height="24" viewBox="0 0 24 24" fill="none" xmlns="http://www.w3.org/2000/svg">
<path d="M16.308 4.38397C15.718 4.38397 15.422 4.38397 15.153 4.28397L15.042 4.23797C14.781 4.11797 14.572 3.90997 14.154 3.49197C13.192 2.52997 12.711 2.04897 12.12 2.00397C12.04 1.99917 11.9599 1.99917 11.88 2.00397C11.289 2.04897 10.808 2.52997 9.84597 3.49197C9.42797 3.90997 9.21897 4.11897 8.95797 4.23797L8.84797 4.28397C8.57797 4.38397 8.28297 4.38397 7.69197 4.38397H7.58197C6.07497 4.38397 5.32097 4.38397 4.85197 4.85197C4.38297 5.31997 4.38397 6.07497 4.38397 7.58197V7.69197C4.38397 8.28197 4.38397 8.57797 4.28397 8.84697C4.2693 8.88497 4.25397 8.92197 4.23797 8.95797C4.11797 9.21897 3.90997 9.42797 3.49197 9.84597C2.52997 10.808 2.04897 11.289 2.00397 11.88C1.99917 11.9599 1.99917 12.04 2.00397 12.12C2.04897 12.711 2.52997 13.192 3.49197 14.154C3.90997 14.572 4.11897 14.781 4.23797 15.042C4.25464 15.078 4.26997 15.1146 4.28397 15.152C4.38397 15.422 4.38397 15.717 4.38397 16.308V16.418C4.38397 17.925 4.38397 18.679 4.85197 19.148C5.31997 19.617 6.07497 19.616 7.58197 19.616H7.69197C8.28197 19.616 8.57797 19.616 8.84697 19.716C8.88497 19.73 8.92197 19.7453 8.95797 19.762C9.21897 19.882 9.42797 20.09 9.84597 20.508C10.808 21.47 11.289 21.951 11.88 21.996C11.96 22.002 12.04 22.002 12.12 21.996C12.711 21.951 13.192 21.47 14.154 20.508C14.572 20.09 14.781 19.882 15.042 19.762C15.078 19.7453 15.1146 19.73 15.152 19.716C15.422 19.616 15.717 19.616 16.308 19.616H16.418C17.925 19.616 18.679 19.616 19.148 19.148C19.617 18.68 19.616 17.925 19.616 16.418V16.308C19.616 15.718 19.616 15.422 19.716 15.153C19.73 15.115 19.7453 15.078 19.762 15.042C19.882 14.781 20.09 14.572 20.508 14.154C21.47 13.192 21.951 12.711 21.996 12.12C22.002 12.04 22.002 11.96 21.996 11.88C21.951 11.289 21.47 10.808 20.508 9.84597C20.09 9.42797 19.882 9.21897 19.762 8.95797L19.716 8.84797C19.616 8.57797 19.616 8.28297 19.616 7.69197V7.58197C19.616 6.07497 19.616 5.32097 19.148 4.85197C18.68 4.38297 17.925 4.38397 16.418 4.38397H16.308Z" stroke="#171818" stroke-width="2" stroke-linecap="round" stroke-linejoin="round"/>
<path d="M15.5 12C15.5 12.4596 15.4095 12.9148 15.2336 13.3394C15.0577 13.764 14.7999 14.1499 14.4749 14.4749C14.1499 14.7999 13.764 15.0577 13.3394 15.2336C12.9148 15.4095 12.4596 15.5 12 15.5C11.5404 15.5 11.0852 15.4095 10.6606 15.2336C10.236 15.0577 9.85013 14.7999 9.52513 14.4749C9.20012 14.1499 8.94231 13.764 8.76642 13.3394C8.59053 12.9148 8.5 12.4596 8.5 12C8.5 11.0717 8.86875 10.1815 9.52513 9.52513C10.1815 8.86875 11.0717 8.5 12 8.5C12.9283 8.5 13.8185 8.86875 14.4749 9.52513C15.1313 10.1815 15.5 11.0717 15.5 12Z" stroke="#171818" stroke-width="2" stroke-linecap="round" stroke-linejoin="round"/>
</svg>
