<svg width="72" height="72" viewBox="0 0 72 72" fill="none" xmlns="http://www.w3.org/2000/svg">
<g filter="url(#filter0_d_71_81)">
<path d="M63.72 19.08C63 16.56 61.2 14.76 58.68 14.04C51.12 13.32 43.56 12.6 36 12.96C28.44 12.96 20.88 13.32 13.32 14.04C11.16 14.76 9.00001 16.92 8.28001 19.08C6.84132 30.3141 6.84132 41.6859 8.28001 52.92C9.00001 55.44 10.8 57.24 13.32 57.96C20.88 58.68 28.44 59.4 36 59.04C43.56 59.04 51.12 58.68 58.68 57.96C61.2 57.24 63 55.44 63.72 52.92C65.1587 41.6859 65.1587 30.3141 63.72 19.08ZM28.8 46.8V25.2L47.52 36L28.8 46.8Z" fill="white"/>
</g>
<defs>
<filter id="filter0_d_71_81" x="-4" y="0" width="80" height="80" filterUnits="userSpaceOnUse" color-interpolation-filters="sRGB">
<feFlood flood-opacity="0" result="BackgroundImageFix"/>
<feColorMatrix in="SourceAlpha" type="matrix" values="0 0 0 0 0 0 0 0 0 0 0 0 0 0 0 0 0 0 127 0" result="hardAlpha"/>
<feOffset dy="4"/>
<feGaussianBlur stdDeviation="2"/>
<feComposite in2="hardAlpha" operator="out"/>
<feColorMatrix type="matrix" values="0 0 0 0 0 0 0 0 0 0 0 0 0 0 0 0 0 0 0.25 0"/>
<feBlend mode="normal" in2="BackgroundImageFix" result="effect1_dropShadow_71_81"/>
<feBlend mode="normal" in="SourceGraphic" in2="effect1_dropShadow_71_81" result="shape"/>
</filter>
</defs>
</svg>
